<svg xmlns="http://www.w3.org/2000/svg" xmlns:xlink="http://www.w3.org/1999/xlink" width="70" zoomAndPan="magnify" viewBox="0 0 52.5 52.499999" height="70" preserveAspectRatio="xMidYMid meet" version="1.0"><defs><clipPath id="22dbef0296"><path d="M 0 13.730469 L 52.003906 13.730469 L 52.003906 36.230469 L 0 36.230469 Z M 0 13.730469 " clip-rule="nonzero"/></clipPath></defs><g clip-path="url(#22dbef0296)"><path fill="#ffffff" d="M 59.078125 25.628906 C 59.078125 26.726562 59.023438 27.816406 58.917969 28.90625 C 58.808594 29.996094 58.648438 31.082031 58.433594 32.15625 C 58.222656 33.230469 57.957031 34.289062 57.636719 35.335938 C 57.320312 36.386719 56.953125 37.414062 56.53125 38.429688 C 56.113281 39.441406 55.644531 40.429688 55.128906 41.394531 C 54.613281 42.359375 54.050781 43.300781 53.441406 44.210938 C 52.832031 45.121094 52.179688 46 51.488281 46.847656 C 50.792969 47.691406 50.058594 48.503906 49.28125 49.277344 C 48.507812 50.050781 47.699219 50.785156 46.851562 51.480469 C 46.003906 52.175781 45.125 52.828125 44.214844 53.4375 C 43.304688 54.046875 42.367188 54.605469 41.398438 55.125 C 40.433594 55.640625 39.445312 56.109375 38.433594 56.527344 C 37.421875 56.945312 36.390625 57.316406 35.34375 57.632812 C 34.296875 57.949219 33.234375 58.214844 32.160156 58.429688 C 31.085938 58.644531 30.003906 58.804688 28.914062 58.910156 C 27.824219 59.019531 26.730469 59.074219 25.636719 59.074219 C 24.539062 59.074219 23.449219 59.019531 22.355469 58.910156 C 21.265625 58.804688 20.183594 58.644531 19.109375 58.429688 C 18.035156 58.214844 16.976562 57.949219 15.925781 57.632812 C 14.878906 57.316406 13.847656 56.945312 12.835938 56.527344 C 11.824219 56.109375 10.835938 55.640625 9.871094 55.125 C 8.90625 54.605469 7.964844 54.046875 7.054688 53.4375 C 6.144531 52.828125 5.265625 52.175781 4.417969 51.480469 C 3.574219 50.785156 2.761719 50.050781 1.988281 49.277344 C 1.214844 48.503906 0.480469 47.691406 -0.214844 46.847656 C -0.910156 46 -1.5625 45.121094 -2.171875 44.210938 C -2.78125 43.300781 -3.34375 42.359375 -3.859375 41.394531 C -4.375 40.429688 -4.84375 39.441406 -5.261719 38.429688 C -5.679688 37.414062 -6.050781 36.386719 -6.367188 35.335938 C -6.683594 34.289062 -6.949219 33.230469 -7.164062 32.15625 C -7.378906 31.082031 -7.539062 29.996094 -7.644531 28.90625 C -7.753906 27.816406 -7.808594 26.726562 -7.808594 25.628906 C -7.808594 24.535156 -7.753906 23.441406 -7.644531 22.351562 C -7.539062 21.261719 -7.378906 20.179688 -7.164062 19.105469 C -6.949219 18.03125 -6.683594 16.96875 -6.367188 15.921875 C -6.050781 14.875 -5.679688 13.84375 -5.261719 12.832031 C -4.84375 11.820312 -4.375 10.832031 -3.859375 9.867188 C -3.34375 8.898438 -2.78125 7.960938 -2.171875 7.050781 C -1.5625 6.140625 -0.910156 5.261719 -0.214844 4.414062 C 0.480469 3.566406 1.214844 2.757812 1.988281 1.984375 C 2.761719 1.207031 3.574219 0.472656 4.417969 -0.222656 C 5.265625 -0.917969 6.144531 -1.566406 7.054688 -2.175781 C 7.964844 -2.785156 8.90625 -3.347656 9.871094 -3.863281 C 10.835938 -4.378906 11.824219 -4.847656 12.835938 -5.265625 C 13.847656 -5.6875 14.878906 -6.054688 15.925781 -6.371094 C 16.976562 -6.691406 18.035156 -6.957031 19.109375 -7.167969 C 20.183594 -7.382812 21.265625 -7.542969 22.355469 -7.652344 C 23.449219 -7.757812 24.539062 -7.8125 25.636719 -7.8125 C 26.730469 -7.8125 27.824219 -7.757812 28.914062 -7.652344 C 30.003906 -7.542969 31.085938 -7.382812 32.160156 -7.167969 C 33.234375 -6.957031 34.296875 -6.691406 35.34375 -6.371094 C 36.390625 -6.054688 37.421875 -5.6875 38.433594 -5.265625 C 39.445312 -4.847656 40.433594 -4.378906 41.398438 -3.863281 C 42.367188 -3.347656 43.304688 -2.785156 44.214844 -2.175781 C 45.125 -1.566406 46.003906 -0.917969 46.851562 -0.222656 C 47.699219 0.472656 48.507812 1.207031 49.28125 1.984375 C 50.058594 2.757812 50.792969 3.566406 51.488281 4.414062 C 52.179688 5.261719 52.832031 6.140625 53.441406 7.050781 C 54.050781 7.960938 54.613281 8.898438 55.128906 9.867188 C 55.644531 10.832031 56.113281 11.820312 56.53125 12.832031 C 56.953125 13.84375 57.320312 14.875 57.636719 15.921875 C 57.957031 16.96875 58.222656 18.03125 58.433594 19.105469 C 58.648438 20.179688 58.808594 21.261719 58.917969 22.351562 C 59.023438 23.441406 59.078125 24.535156 59.078125 25.628906 Z M 59.078125 25.628906 " fill-opacity="1" fill-rule="nonzero"/></g><path fill="#e4dcd3" d="M 34.304688 31.226562 C 32.9375 32.726562 31.027344 33.480469 30.140625 33.480469 C 29.117188 33.480469 28.570312 32.863281 28.433594 31.910156 C 28.363281 31.566406 28.433594 31.160156 28.5 30.816406 C 28.84375 28.703125 29.59375 27.335938 29.59375 26.996094 C 29.59375 26.859375 29.527344 26.789062 29.457031 26.789062 C 28.773438 26.789062 26.453125 29.179688 26.113281 30.75 L 25.839844 32.046875 C 25.636719 32.933594 24.816406 33.480469 24.203125 33.480469 C 23.929688 33.480469 23.722656 33.34375 23.65625 33 C 23.65625 32.863281 23.65625 32.726562 23.65625 32.589844 L 23.792969 31.910156 C 22.5625 32.863281 21.199219 33.480469 20.585938 33.480469 C 19.699219 33.480469 19.21875 33 19.082031 32.320312 C 18.539062 33.070312 17.785156 33.480469 16.96875 33.480469 C 15.945312 33.480469 14.988281 32.796875 14.511719 31.773438 C 13.828125 32.523438 13.007812 33.273438 12.054688 33.886719 C 10.621094 34.777344 9.050781 35.527344 7.207031 35.527344 C 5.5 35.527344 4 34.640625 3.25 33.886719 C 2.019531 32.796875 1.40625 31.089844 1.203125 29.589844 C 0.585938 24.8125 3.523438 18.464844 8.09375 15.734375 C 9.117188 15.121094 10.277344 14.777344 11.371094 14.777344 C 13.554688 14.777344 15.191406 16.347656 15.398438 18.191406 C 15.601562 19.898438 14.921875 21.332031 13.078125 22.21875 C 12.121094 22.695312 11.644531 22.695312 11.507812 22.421875 C 11.4375 22.285156 11.4375 22.011719 11.644531 21.875 C 13.417969 20.441406 13.417969 19.214844 13.214844 17.507812 C 13.078125 16.417969 12.394531 15.734375 11.574219 15.734375 C 8.027344 15.734375 3.113281 23.445312 3.796875 29.042969 C 4.066406 31.226562 5.433594 33.75 8.164062 33.75 C 9.050781 33.75 10.074219 33.480469 10.894531 33.070312 C 12.394531 32.320312 13.28125 31.703125 14.101562 30.679688 C 13.894531 28.085938 16.148438 24.8125 19.425781 24.8125 C 20.859375 24.8125 22.019531 25.355469 22.15625 26.515625 C 22.359375 27.949219 21.128906 28.222656 20.652344 28.222656 C 20.242188 28.222656 19.628906 28.085938 19.5625 27.746094 C 19.492188 27.335938 20.449219 27.542969 20.3125 26.652344 C 20.242188 26.109375 19.628906 25.902344 19.082031 25.902344 C 17.035156 25.902344 15.875 28.769531 16.082031 30.542969 C 16.148438 31.363281 16.625 32.183594 17.308594 32.183594 C 17.921875 32.183594 18.808594 31.292969 19.082031 30.066406 C 19.289062 29.179688 20.105469 28.632812 20.722656 28.632812 C 21.0625 28.632812 21.265625 28.769531 21.265625 29.109375 C 21.265625 29.246094 21.265625 29.382812 21.265625 29.519531 C 21.199219 29.863281 20.925781 31.160156 20.925781 31.363281 C 20.925781 31.566406 21.0625 31.910156 21.472656 31.910156 C 21.8125 31.910156 22.90625 31.292969 23.996094 30.339844 C 24.339844 28.632812 24.746094 26.515625 24.746094 26.378906 C 24.882812 25.699219 25.15625 24.949219 26.523438 24.949219 C 26.796875 24.949219 27 25.085938 27.070312 25.425781 C 27.070312 25.5625 27.070312 25.699219 27.070312 25.835938 L 26.726562 27.675781 C 27.957031 26.039062 29.867188 24.8125 31.027344 24.8125 C 31.503906 24.8125 31.914062 25.085938 31.984375 25.5625 C 32.050781 25.835938 31.914062 26.3125 31.777344 26.859375 C 31.367188 27.949219 30.890625 29.65625 30.617188 31.089844 C 30.550781 31.429688 30.6875 31.839844 31.230469 31.839844 C 31.710938 31.839844 33.144531 31.292969 34.304688 29.726562 C 34.304688 29.519531 34.304688 29.316406 34.304688 29.042969 C 34.304688 27.8125 34.371094 26.859375 34.644531 26.109375 C 34.847656 25.355469 35.804688 24.675781 36.417969 24.675781 C 36.761719 24.675781 36.964844 24.878906 36.964844 25.21875 C 36.964844 25.355469 36.964844 25.492188 36.894531 25.628906 C 36.488281 26.925781 36.214844 28.085938 36.214844 29.246094 C 36.214844 29.929688 36.351562 30.953125 36.488281 31.5 C 36.488281 31.636719 36.554688 31.703125 36.691406 31.703125 C 36.894531 31.703125 38.261719 30.40625 39.21875 28.769531 C 38.328125 28.222656 37.851562 27.199219 37.851562 25.972656 C 37.851562 23.921875 39.082031 22.832031 40.308594 22.832031 C 41.265625 22.832031 42.082031 23.515625 42.082031 24.878906 C 42.082031 25.765625 41.742188 26.722656 41.265625 27.675781 C 41.265625 27.675781 41.46875 27.675781 41.539062 27.675781 C 42.289062 27.675781 42.835938 27.335938 43.175781 26.925781 C 43.3125 26.789062 43.449219 26.652344 43.585938 26.585938 C 44.539062 25.425781 45.972656 24.605469 47.613281 24.605469 C 49.046875 24.605469 50.207031 25.152344 50.339844 26.3125 C 50.546875 27.746094 49.25 28.085938 48.839844 28.085938 C 48.429688 28.085938 47.75 27.949219 47.75 27.609375 C 47.679688 27.269531 48.636719 27.40625 48.566406 26.515625 C 48.5 25.972656 47.882812 25.699219 47.339844 25.699219 C 45.425781 25.699219 44.132812 28.222656 44.335938 30.339844 C 44.402344 31.160156 44.8125 31.976562 45.5625 31.976562 C 46.179688 31.976562 47.066406 31.089844 47.40625 29.863281 C 47.613281 29.042969 48.429688 28.429688 49.046875 28.429688 C 49.316406 28.429688 49.589844 28.566406 49.589844 28.90625 C 49.589844 29.109375 49.523438 29.453125 49.25 30.816406 C 49.113281 31.363281 49.113281 31.910156 49.113281 32.25 C 49.25 33.070312 49.589844 33.617188 49.933594 33.957031 C 50.070312 34.09375 50.136719 34.230469 50.136719 34.296875 C 50.136719 34.503906 50 34.707031 49.726562 34.707031 C 49.660156 34.707031 49.523438 34.707031 49.453125 34.640625 C 47.953125 34.023438 47.339844 33 47.203125 32.113281 C 46.65625 32.863281 45.90625 33.207031 45.085938 33.207031 C 43.789062 33.207031 42.492188 32.046875 42.289062 30.542969 C 42.21875 29.929688 42.289062 29.246094 42.492188 28.632812 C 41.945312 28.972656 41.402344 29.179688 40.855469 29.179688 C 40.648438 29.179688 40.515625 29.179688 40.378906 29.179688 C 39.082031 31.023438 37.714844 32.320312 36.691406 32.933594 C 36.28125 33.136719 35.871094 33.273438 35.601562 33.273438 C 35.394531 33.273438 35.121094 33.207031 34.984375 33 C 34.574219 32.726562 34.371094 32.046875 34.304688 31.226562 Z M 38.945312 25.085938 C 38.945312 25.902344 39.351562 26.722656 39.832031 27.269531 C 40.035156 26.722656 40.171875 26.175781 40.171875 25.628906 C 40.171875 24.605469 39.761719 24.128906 39.488281 24.128906 C 39.082031 24.128906 38.945312 24.675781 38.945312 25.085938 Z M 38.945312 25.085938 " fill-opacity="1" fill-rule="nonzero"/></svg>