<svg xmlns="http://www.w3.org/2000/svg" xmlns:xlink="http://www.w3.org/1999/xlink" width="60" zoomAndPan="magnify" viewBox="0 0 45 44.999999" height="60" preserveAspectRatio="xMidYMid meet" version="1.0"><defs><clipPath id="e70b5580b6"><path d="M 6.546875 8 L 38.796875 8 L 38.796875 45 L 6.546875 45 Z M 6.546875 8 " clip-rule="nonzero"/></clipPath></defs><g clip-path="url(#e70b5580b6)"><path fill="#a6a6a6" d="M 22.65625 45 L 9.496094 41.382812 L 6.5625 8.84375 L 38.792969 8.84375 L 35.855469 41.378906 Z M 22.65625 45 " fill-opacity="1" fill-rule="nonzero"/></g><path fill="#d9d9d9" d="M 33.34375 39.308594 L 35.851562 11.503906 L 22.675781 11.503906 L 22.675781 42.230469 Z M 33.34375 39.308594 " fill-opacity="1" fill-rule="nonzero"/><path fill="#ebebeb" d="M 13.285156 23.574219 L 13.648438 27.5625 L 22.675781 27.5625 L 22.675781 23.574219 Z M 13.285156 23.574219 " fill-opacity="1" fill-rule="nonzero"/><path fill="#ebebeb" d="M 12.558594 15.496094 L 12.925781 19.484375 L 22.675781 19.484375 L 22.675781 15.496094 Z M 12.558594 15.496094 " fill-opacity="1" fill-rule="nonzero"/><path fill="#ebebeb" d="M 22.675781 33.9375 L 22.660156 33.941406 L 18.164062 32.742188 L 17.878906 29.558594 L 13.828125 29.558594 L 14.394531 35.828125 L 22.65625 38.09375 L 22.675781 38.089844 Z M 22.675781 33.9375 " fill-opacity="1" fill-rule="nonzero"/><path fill="#a6a6a6" d="M 14.148438 0 L 19.035156 0 L 19.035156 2.019531 L 16.191406 2.019531 L 16.191406 4.042969 L 19.035156 4.042969 L 19.035156 6.0625 L 14.148438 6.0625 Z M 14.148438 0 " fill-opacity="1" fill-rule="nonzero"/><path fill="#a6a6a6" d="M 20.011719 0 L 24.898438 0 L 24.898438 1.757812 L 22.054688 1.757812 L 22.054688 2.109375 L 24.898438 2.109375 L 24.898438 6.152344 L 20.011719 6.152344 L 20.011719 4.304688 L 22.855469 4.304688 L 22.855469 3.953125 L 20.011719 3.953125 Z M 20.011719 0 " fill-opacity="1" fill-rule="nonzero"/><path fill="#a6a6a6" d="M 25.875 0 L 30.761719 0 L 30.761719 1.757812 L 27.917969 1.757812 L 27.917969 2.109375 L 30.761719 2.109375 L 30.761719 6.152344 L 25.875 6.152344 L 25.875 4.304688 L 28.71875 4.304688 L 28.71875 3.953125 L 25.875 3.953125 Z M 25.875 0 " fill-opacity="1" fill-rule="nonzero"/><path fill="#ffffff" d="M 32.042969 23.574219 L 32.769531 15.496094 L 22.664062 15.496094 L 22.664062 19.484375 L 28.347656 19.484375 L 27.980469 23.574219 L 22.664062 23.574219 L 22.664062 27.5625 L 27.632812 27.5625 L 27.164062 32.738281 L 22.664062 33.941406 L 22.664062 38.09375 L 30.933594 35.828125 L 30.996094 35.152344 L 31.945312 24.644531 Z M 32.042969 23.574219 " fill-opacity="1" fill-rule="nonzero"/></svg>