<svg xmlns="http://www.w3.org/2000/svg" xmlns:xlink="http://www.w3.org/1999/xlink" width="60" zoomAndPan="magnify" viewBox="0 0 45 44.999999" height="60" preserveAspectRatio="xMidYMid meet" version="1.0"><path fill="#d9d9d9" d="M 36.5625 45 L 8.4375 45 C 3.777344 45 0 41.222656 0 36.5625 L 0 8.4375 C 0 3.777344 3.777344 0 8.4375 0 L 36.5625 0 C 41.222656 0 45 3.777344 45 8.4375 L 45 36.5625 C 45 41.222656 41.222656 45 36.5625 45 Z M 36.5625 45 " fill-opacity="1" fill-rule="nonzero"/><path fill="#008037" d="M 31.171875 16.929688 L 27.519531 16.929688 L 27.519531 24.191406 C 27.519531 27.394531 27.351562 28.613281 26.832031 29.664062 C 26.332031 30.691406 25.550781 31.359375 23.9375 32.125 L 27.328125 33.75 C 28.941406 32.9375 29.726562 32.199219 30.320312 31.027344 C 30.960938 29.808594 31.171875 28.398438 31.171875 25.460938 Z M 31.171875 16.929688 " fill-opacity="1" fill-rule="nonzero"/><path fill="#008037" d="M 25.359375 28.28125 L 25.359375 11.25 L 21.707031 11.25 L 21.707031 16.859375 C 21.160156 16.71875 20.710938 16.667969 20.117188 16.667969 C 16.296875 16.667969 13.828125 19.105469 13.828125 22.855469 C 13.828125 26.75 16.152344 28.78125 20.617188 28.78125 C 22.109375 28.78125 23.484375 28.636719 25.359375 28.28125 Z M 17.554688 22.785156 C 17.554688 20.777344 18.621094 19.628906 20.472656 19.628906 L 20.464844 19.628906 C 20.492188 19.628906 20.515625 19.628906 20.542969 19.628906 C 20.957031 19.628906 21.359375 19.699219 21.703125 19.820312 L 21.703125 25.722656 C 21.183594 25.792969 20.851562 25.816406 20.445312 25.816406 C 18.574219 25.820312 17.554688 24.746094 17.554688 22.785156 Z M 17.554688 22.785156 " fill-opacity="1" fill-rule="nonzero"/><path fill="#008037" d="M 27.519531 11.269531 L 31.171875 11.269531 L 31.171875 15.042969 L 27.519531 15.042969 Z M 27.519531 11.269531 " fill-opacity="1" fill-rule="nonzero"/></svg>