<svg xmlns="http://www.w3.org/2000/svg" xmlns:xlink="http://www.w3.org/1999/xlink" width="60" zoomAndPan="magnify" viewBox="0 0 45 44.999999" height="60" preserveAspectRatio="xMidYMid meet" version="1.0"><defs><clipPath id="870d526a81"><path d="M 0 15.996094 L 45 15.996094 L 45 28.746094 L 0 28.746094 Z M 0 15.996094 " clip-rule="nonzero"/></clipPath></defs><g clip-path="url(#870d526a81)"><path fill="#9d968d" d="M 0.335938 25.9375 L 0.335938 21.039062 L 6.578125 21.039062 L 6.578125 20.75 L 0.335938 20.75 L 0.335938 16.28125 L 6.972656 16.28125 L 6.972656 15.996094 L 0.046875 15.996094 L 0.046875 26.222656 L 7.03125 26.222656 L 7.03125 25.9375 Z M 12.65625 18.859375 L 10.070312 22.199219 L 7.542969 18.859375 L 7.164062 18.859375 L 9.894531 22.414062 L 6.898438 26.222656 L 7.25 26.222656 L 10.070312 22.628906 L 12.90625 26.222656 L 13.269531 26.222656 L 10.261719 22.414062 L 13.007812 18.859375 Z M 14.148438 28.746094 L 14.148438 24.160156 L 14.175781 24.160156 C 14.351562 24.828125 14.699219 25.367188 15.214844 25.773438 C 15.730469 26.179688 16.390625 26.382812 17.1875 26.382812 C 17.703125 26.382812 18.160156 26.277344 18.5625 26.074219 C 18.960938 25.867188 19.296875 25.589844 19.5625 25.234375 C 19.832031 24.882812 20.035156 24.472656 20.175781 24.003906 C 20.316406 23.535156 20.386719 23.042969 20.386719 22.527344 C 20.386719 21.972656 20.316406 21.464844 20.167969 20.996094 C 20.023438 20.527344 19.8125 20.121094 19.535156 19.777344 C 19.253906 19.433594 18.917969 19.167969 18.523438 18.976562 C 18.128906 18.785156 17.683594 18.6875 17.1875 18.6875 C 16.808594 18.6875 16.453125 18.746094 16.128906 18.855469 C 15.800781 18.964844 15.511719 19.117188 15.257812 19.320312 C 15.007812 19.519531 14.785156 19.757812 14.601562 20.027344 C 14.417969 20.300781 14.273438 20.597656 14.175781 20.925781 L 14.148438 20.925781 L 14.148438 18.859375 L 13.855469 18.859375 L 13.855469 28.746094 Z M 17.1875 26.109375 C 16.273438 26.109375 15.535156 25.800781 14.980469 25.183594 C 14.425781 24.570312 14.148438 23.683594 14.148438 22.527344 C 14.148438 22.050781 14.214844 21.597656 14.351562 21.167969 C 14.488281 20.738281 14.6875 20.359375 14.945312 20.035156 C 15.203125 19.710938 15.523438 19.453125 15.902344 19.261719 C 16.28125 19.070312 16.710938 18.976562 17.1875 18.976562 C 17.675781 18.976562 18.101562 19.070312 18.464844 19.261719 C 18.832031 19.453125 19.132812 19.714844 19.371094 20.042969 C 19.613281 20.371094 19.792969 20.75 19.914062 21.175781 C 20.035156 21.597656 20.097656 22.050781 20.097656 22.527344 C 20.097656 22.957031 20.039062 23.386719 19.929688 23.808594 C 19.816406 24.234375 19.644531 24.617188 19.410156 24.957031 C 19.175781 25.296875 18.875 25.570312 18.511719 25.785156 C 18.144531 26.003906 17.703125 26.109375 17.1875 26.109375 Z M 21.996094 26.222656 L 21.996094 22.054688 C 21.996094 21.65625 22.054688 21.261719 22.171875 20.882812 C 22.289062 20.5 22.46875 20.164062 22.710938 19.871094 C 22.957031 19.578125 23.265625 19.351562 23.640625 19.183594 C 24.015625 19.015625 24.460938 18.945312 24.976562 18.976562 L 24.976562 18.6875 C 24.527344 18.679688 24.136719 18.726562 23.800781 18.832031 C 23.464844 18.9375 23.175781 19.082031 22.933594 19.261719 C 22.6875 19.445312 22.492188 19.65625 22.347656 19.898438 C 22.199219 20.144531 22.09375 20.402344 22.027344 20.679688 L 21.996094 20.679688 L 21.996094 18.859375 L 21.703125 18.859375 L 21.703125 26.222656 Z M 25.34375 22.601562 L 31.625 22.601562 C 31.644531 22.09375 31.59375 21.605469 31.472656 21.140625 C 31.351562 20.671875 31.15625 20.253906 30.890625 19.890625 C 30.621094 19.53125 30.273438 19.238281 29.851562 19.019531 C 29.425781 18.800781 28.921875 18.6875 28.339844 18.6875 C 27.921875 18.6875 27.511719 18.773438 27.109375 18.945312 C 26.710938 19.117188 26.359375 19.371094 26.058594 19.699219 C 25.757812 20.027344 25.511719 20.433594 25.328125 20.910156 C 25.144531 21.386719 25.050781 21.929688 25.050781 22.542969 C 25.050781 23.085938 25.113281 23.59375 25.242188 24.066406 C 25.367188 24.539062 25.5625 24.953125 25.824219 25.300781 C 26.085938 25.648438 26.425781 25.917969 26.839844 26.109375 C 27.253906 26.300781 27.753906 26.390625 28.339844 26.382812 C 29.195312 26.382812 29.917969 26.144531 30.5 25.671875 C 31.085938 25.199219 31.433594 24.535156 31.539062 23.675781 L 31.246094 23.675781 C 31.121094 24.484375 30.796875 25.09375 30.273438 25.5 C 29.753906 25.90625 29.097656 26.109375 28.308594 26.109375 C 27.773438 26.109375 27.320312 26.019531 26.949219 25.835938 C 26.578125 25.65625 26.277344 25.40625 26.042969 25.09375 C 25.808594 24.777344 25.636719 24.40625 25.527344 23.980469 C 25.414062 23.558594 25.351562 23.097656 25.34375 22.601562 Z M 31.335938 22.3125 L 25.34375 22.3125 C 25.371094 21.796875 25.46875 21.335938 25.636719 20.925781 C 25.800781 20.511719 26.015625 20.164062 26.285156 19.871094 C 26.554688 19.578125 26.863281 19.359375 27.222656 19.203125 C 27.574219 19.050781 27.957031 18.976562 28.367188 18.976562 C 28.855469 18.976562 29.285156 19.0625 29.652344 19.242188 C 30.023438 19.417969 30.332031 19.660156 30.582031 19.964844 C 30.832031 20.269531 31.019531 20.625 31.144531 21.03125 C 31.269531 21.4375 31.335938 21.863281 31.335938 22.3125 Z M 37.691406 21.039062 L 37.984375 21.039062 C 37.984375 20.21875 37.742188 19.621094 37.253906 19.246094 C 36.765625 18.875 36.105469 18.6875 35.265625 18.6875 C 34.796875 18.6875 34.402344 18.746094 34.082031 18.859375 C 33.761719 18.976562 33.496094 19.125 33.292969 19.304688 C 33.089844 19.488281 32.941406 19.6875 32.855469 19.90625 C 32.765625 20.125 32.722656 20.335938 32.722656 20.535156 C 32.722656 20.9375 32.796875 21.257812 32.941406 21.496094 C 33.089844 21.734375 33.316406 21.921875 33.628906 22.054688 C 33.84375 22.152344 34.085938 22.238281 34.359375 22.3125 C 34.632812 22.390625 34.949219 22.472656 35.308594 22.558594 C 35.628906 22.632812 35.949219 22.710938 36.257812 22.785156 C 36.570312 22.863281 36.847656 22.964844 37.085938 23.09375 C 37.324219 23.222656 37.519531 23.386719 37.667969 23.589844 C 37.820312 23.789062 37.894531 24.050781 37.894531 24.375 C 37.894531 24.691406 37.820312 24.957031 37.667969 25.179688 C 37.519531 25.398438 37.328125 25.578125 37.09375 25.714844 C 36.859375 25.855469 36.597656 25.953125 36.3125 26.015625 C 36.023438 26.078125 35.742188 26.109375 35.46875 26.109375 C 34.582031 26.109375 33.902344 25.914062 33.433594 25.527344 C 32.960938 25.140625 32.722656 24.535156 32.722656 23.703125 L 32.429688 23.703125 C 32.429688 24.628906 32.6875 25.308594 33.199219 25.738281 C 33.710938 26.167969 34.46875 26.382812 35.46875 26.382812 C 35.792969 26.382812 36.117188 26.347656 36.441406 26.273438 C 36.769531 26.203125 37.058594 26.085938 37.320312 25.921875 C 37.578125 25.761719 37.785156 25.550781 37.949219 25.292969 C 38.109375 25.035156 38.1875 24.71875 38.1875 24.347656 C 38.1875 23.992188 38.117188 23.707031 37.976562 23.488281 C 37.835938 23.269531 37.648438 23.085938 37.421875 22.945312 C 37.191406 22.800781 36.933594 22.6875 36.648438 22.605469 C 36.359375 22.527344 36.070312 22.445312 35.777344 22.371094 C 35.367188 22.265625 35.011719 22.175781 34.703125 22.097656 C 34.394531 22.023438 34.109375 21.929688 33.847656 21.828125 C 33.59375 21.722656 33.390625 21.570312 33.242188 21.375 C 33.089844 21.179688 33.015625 20.898438 33.015625 20.535156 C 33.015625 20.46875 33.035156 20.351562 33.074219 20.179688 C 33.113281 20.007812 33.203125 19.832031 33.351562 19.65625 C 33.496094 19.480469 33.722656 19.320312 34.023438 19.183594 C 34.324219 19.046875 34.738281 18.976562 35.265625 18.976562 C 35.625 18.976562 35.953125 19.015625 36.25 19.089844 C 36.550781 19.167969 36.804688 19.289062 37.019531 19.457031 C 37.234375 19.621094 37.398438 19.835938 37.515625 20.09375 C 37.632812 20.351562 37.691406 20.667969 37.691406 21.039062 Z M 44.457031 21.039062 L 44.75 21.039062 C 44.75 20.21875 44.507812 19.621094 44.019531 19.246094 C 43.53125 18.875 42.871094 18.6875 42.03125 18.6875 C 41.566406 18.6875 41.167969 18.746094 40.847656 18.859375 C 40.527344 18.976562 40.265625 19.125 40.058594 19.304688 C 39.855469 19.488281 39.707031 19.6875 39.621094 19.90625 C 39.53125 20.125 39.488281 20.335938 39.488281 20.535156 C 39.488281 20.9375 39.5625 21.257812 39.707031 21.496094 C 39.855469 21.734375 40.082031 21.921875 40.394531 22.054688 C 40.609375 22.152344 40.851562 22.238281 41.125 22.3125 C 41.398438 22.390625 41.714844 22.472656 42.074219 22.558594 C 42.398438 22.632812 42.714844 22.710938 43.027344 22.785156 C 43.335938 22.863281 43.613281 22.964844 43.851562 23.09375 C 44.089844 23.222656 44.285156 23.386719 44.4375 23.589844 C 44.585938 23.789062 44.664062 24.050781 44.664062 24.375 C 44.664062 24.691406 44.585938 24.957031 44.4375 25.179688 C 44.285156 25.398438 44.09375 25.578125 43.859375 25.714844 C 43.625 25.855469 43.363281 25.953125 43.078125 26.015625 C 42.789062 26.078125 42.507812 26.109375 42.238281 26.109375 C 41.351562 26.109375 40.667969 25.914062 40.199219 25.527344 C 39.726562 25.140625 39.488281 24.535156 39.488281 23.703125 L 39.195312 23.703125 C 39.195312 24.628906 39.453125 25.308594 39.964844 25.738281 C 40.476562 26.167969 41.234375 26.382812 42.238281 26.382812 C 42.558594 26.382812 42.882812 26.347656 43.207031 26.273438 C 43.535156 26.203125 43.828125 26.085938 44.085938 25.921875 C 44.34375 25.761719 44.554688 25.550781 44.714844 25.292969 C 44.875 25.035156 44.953125 24.71875 44.953125 24.347656 C 44.953125 23.992188 44.882812 23.707031 44.742188 23.488281 C 44.601562 23.269531 44.417969 23.085938 44.1875 22.945312 C 43.957031 22.800781 43.699219 22.6875 43.414062 22.605469 C 43.125 22.527344 42.835938 22.445312 42.542969 22.371094 C 42.132812 22.265625 41.777344 22.175781 41.46875 22.097656 C 41.160156 22.023438 40.878906 21.929688 40.613281 21.828125 C 40.359375 21.722656 40.160156 21.570312 40.007812 21.375 C 39.855469 21.179688 39.78125 20.898438 39.78125 20.535156 C 39.78125 20.46875 39.800781 20.351562 39.839844 20.179688 C 39.878906 20.007812 39.972656 19.832031 40.117188 19.65625 C 40.265625 19.480469 40.488281 19.320312 40.789062 19.183594 C 41.09375 19.046875 41.503906 18.976562 42.03125 18.976562 C 42.394531 18.976562 42.722656 19.015625 43.019531 19.089844 C 43.316406 19.167969 43.570312 19.289062 43.785156 19.457031 C 44 19.621094 44.164062 19.835938 44.28125 20.09375 C 44.398438 20.351562 44.457031 20.667969 44.457031 21.039062 Z M 44.457031 21.039062 " fill-opacity="1" fill-rule="nonzero"/></g></svg>