<svg xmlns="http://www.w3.org/2000/svg" xmlns:xlink="http://www.w3.org/1999/xlink" width="60" zoomAndPan="magnify" viewBox="0 0 45 44.999999" height="60" preserveAspectRatio="xMidYMid meet" version="1.0"><defs><clipPath id="d75630a7df"><path d="M 10 28 L 23 28 L 23 39.75 L 10 39.75 Z M 10 28 " clip-rule="nonzero"/></clipPath><clipPath id="1d07db7cd5"><path d="M 10 4.5 L 23 4.5 L 23 17 L 10 17 Z M 10 4.5 " clip-rule="nonzero"/></clipPath><clipPath id="5f312d0374"><path d="M 22 4.5 L 35 4.5 L 35 17 L 22 17 Z M 22 4.5 " clip-rule="nonzero"/></clipPath></defs><g clip-path="url(#d75630a7df)"><path fill="#ede8e8" d="M 16.539062 39.75 C 19.78125 39.75 22.414062 37.117188 22.414062 33.875 L 22.414062 28 L 16.539062 28 C 13.296875 28 10.664062 30.632812 10.664062 33.875 C 10.664062 37.117188 13.296875 39.75 16.539062 39.75 Z M 16.539062 39.75 " fill-opacity="1" fill-rule="nonzero"/></g><path fill="#ede8e8" d="M 10.664062 22.125 C 10.664062 18.882812 13.296875 16.25 16.539062 16.25 L 22.414062 16.25 L 22.414062 28 L 16.539062 28 C 13.296875 28 10.664062 25.367188 10.664062 22.125 Z M 10.664062 22.125 " fill-opacity="1" fill-rule="nonzero"/><g clip-path="url(#1d07db7cd5)"><path fill="#ede8e8" d="M 10.664062 10.375 C 10.664062 7.132812 13.296875 4.5 16.539062 4.5 L 22.414062 4.5 L 22.414062 16.25 L 16.539062 16.25 C 13.296875 16.25 10.664062 13.617188 10.664062 10.375 Z M 10.664062 10.375 " fill-opacity="1" fill-rule="nonzero"/></g><g clip-path="url(#5f312d0374)"><path fill="#ede8e8" d="M 22.414062 4.5 L 28.289062 4.5 C 31.53125 4.5 34.164062 7.132812 34.164062 10.375 C 34.164062 13.617188 31.53125 16.25 28.289062 16.25 L 22.414062 16.25 Z M 22.414062 4.5 " fill-opacity="1" fill-rule="nonzero"/></g><path fill="#ede8e8" d="M 34.164062 22.125 C 34.164062 25.367188 31.53125 28 28.289062 28 C 25.046875 28 22.414062 25.367188 22.414062 22.125 C 22.414062 18.882812 25.046875 16.25 28.289062 16.25 C 31.53125 16.25 34.164062 18.882812 34.164062 22.125 Z M 34.164062 22.125 " fill-opacity="1" fill-rule="nonzero"/></svg>