<svg xmlns="http://www.w3.org/2000/svg" xmlns:xlink="http://www.w3.org/1999/xlink" width="60" zoomAndPan="magnify" viewBox="0 0 45 44.999999" height="60" preserveAspectRatio="xMidYMid meet" version="1.0"><defs><clipPath id="222bd1d571"><path d="M 6.546875 8 L 38.796875 8 L 38.796875 44.921875 L 6.546875 44.921875 Z M 6.546875 8 " clip-rule="nonzero"/></clipPath></defs><g clip-path="url(#222bd1d571)"><path fill="#a6a6a6" d="M 38.800781 8.804688 L 35.863281 41.25 L 22.65625 44.859375 L 9.484375 41.253906 L 6.550781 8.804688 Z M 38.800781 8.804688 " fill-opacity="1" fill-rule="nonzero"/></g><path fill="#a6a6a6" d="M 22.675781 42.101562 L 33.347656 39.183594 L 35.859375 11.457031 L 22.675781 11.457031 Z M 22.675781 42.101562 " fill-opacity="1" fill-rule="nonzero"/><path fill="#d9d9d9" d="M 16.964844 19.417969 L 22.675781 19.417969 L 22.675781 15.4375 L 12.550781 15.4375 L 12.648438 16.503906 L 13.640625 27.472656 L 22.675781 27.472656 L 22.675781 23.492188 L 17.335938 23.492188 Z M 16.964844 19.417969 " fill-opacity="1" fill-rule="nonzero"/><path fill="#d9d9d9" d="M 17.875 29.460938 L 13.820312 29.460938 L 14.386719 35.710938 L 22.65625 37.976562 L 22.675781 37.96875 L 22.675781 33.828125 L 22.660156 33.835938 L 18.164062 32.636719 Z M 17.875 29.460938 " fill-opacity="1" fill-rule="nonzero"/><path fill="#a6a6a6" d="M 9.550781 -0.015625 L 11.605469 -0.015625 L 11.605469 1.984375 L 13.480469 1.984375 L 13.480469 -0.015625 L 15.53125 -0.015625 L 15.53125 6.035156 L 13.480469 6.035156 L 13.480469 4.011719 L 11.605469 4.011719 L 11.605469 6.035156 L 9.550781 6.035156 Z M 9.550781 -0.015625 " fill-opacity="1" fill-rule="nonzero"/><path fill="#a6a6a6" d="M 18.230469 1.992188 L 16.425781 1.992188 L 16.425781 -0.015625 L 22.089844 -0.015625 L 22.089844 1.992188 L 20.28125 1.992188 L 20.28125 6.035156 L 18.230469 6.035156 Z M 18.230469 1.992188 " fill-opacity="1" fill-rule="nonzero"/><path fill="#a6a6a6" d="M 22.988281 -0.015625 L 25.128906 -0.015625 L 26.445312 2.109375 L 27.757812 -0.015625 L 29.898438 -0.015625 L 29.898438 6.035156 L 27.855469 6.035156 L 27.855469 3.035156 L 26.445312 5.1875 L 26.410156 5.1875 L 24.996094 3.035156 L 24.996094 6.035156 L 22.988281 6.035156 Z M 22.988281 -0.015625 " fill-opacity="1" fill-rule="nonzero"/><path fill="#a6a6a6" d="M 30.921875 -0.015625 L 32.972656 -0.015625 L 32.972656 4.035156 L 35.859375 4.035156 L 35.859375 6.035156 L 30.921875 6.035156 Z M 30.921875 -0.015625 " fill-opacity="1" fill-rule="nonzero"/><path fill="#ffffff" d="M 22.664062 27.472656 L 27.636719 27.472656 L 27.164062 32.632812 L 22.664062 33.832031 L 22.664062 37.972656 L 30.941406 35.710938 L 31 35.039062 L 31.949219 24.5625 L 32.046875 23.492188 L 22.664062 23.492188 Z M 22.664062 27.472656 " fill-opacity="1" fill-rule="nonzero"/><path fill="#ffffff" d="M 22.664062 19.40625 L 22.664062 19.417969 L 32.414062 19.417969 L 32.496094 18.523438 L 32.679688 16.503906 L 32.777344 15.4375 L 22.664062 15.4375 Z M 22.664062 19.40625 " fill-opacity="1" fill-rule="nonzero"/></svg>