<svg xmlns="http://www.w3.org/2000/svg" xmlns:xlink="http://www.w3.org/1999/xlink" width="80" zoomAndPan="magnify" viewBox="0 0 60 60" height="80" preserveAspectRatio="xMidYMid meet" version="1.0"><defs><clipPath id="caa2530941"><path d="M 3.3125 4 L 56.5625 4 L 56.5625 56.5625 L 3.3125 56.5625 Z M 3.3125 4 " clip-rule="nonzero"/></clipPath></defs><g clip-path="url(#caa2530941)"><path fill="#d9d9d9" d="M 3.953125 4.425781 L 3.953125 56.507812 L 56.03125 56.507812 L 56.03125 4.425781 Z M 31.132812 48.976562 C 30.363281 50.535156 28.898438 51.5625 27.203125 52.054688 C 24.59375 52.65625 22.097656 52.3125 20.242188 51.199219 C 18.996094 50.4375 18.027344 49.265625 17.371094 47.914062 C 18.691406 47.105469 20.007812 46.292969 21.332031 45.488281 C 21.367188 45.5 21.46875 45.691406 21.609375 45.933594 C 22.113281 46.78125 22.550781 47.378906 23.40625 47.796875 C 24.25 48.085938 26.09375 48.269531 26.808594 46.789062 C 27.242188 46.035156 27.105469 43.566406 27.105469 40.890625 C 27.105469 36.679688 27.125 32.542969 27.125 28.28125 L 31.996094 28.28125 C 31.996094 32.753906 32.019531 37.238281 31.996094 41.707031 C 32.003906 44.441406 32.242188 46.929688 31.132812 48.976562 Z M 51.339844 47.601562 C 49.648438 53.394531 40.207031 53.582031 36.4375 49.753906 C 35.636719 48.855469 35.140625 48.382812 34.664062 47.34375 C 36.667969 46.191406 36.667969 46.191406 38.617188 45.0625 C 39.679688 46.691406 40.660156 47.585938 42.421875 47.953125 C 44.8125 48.242188 47.21875 47.421875 46.679688 44.882812 C 46.125 42.808594 41.785156 42.304688 38.828125 40.085938 C 35.828125 38.070312 35.125 33.175781 37.589844 30.378906 C 38.414062 29.34375 39.8125 28.570312 41.28125 28.199219 L 42.816406 28.003906 C 45.761719 27.941406 47.605469 28.71875 48.957031 30.230469 C 49.332031 30.613281 49.636719 31.023438 50.214844 31.914062 C 48.644531 32.914062 48.648438 32.90625 46.402344 34.359375 C 45.921875 33.324219 45.125 32.675781 44.285156 32.394531 C 42.976562 32 41.328125 32.429688 40.988281 33.8125 C 40.867188 34.238281 40.894531 34.632812 41.082031 35.335938 C 41.609375 36.542969 43.386719 37.066406 44.980469 37.800781 C 49.570312 39.664062 51.121094 41.65625 51.503906 44.03125 C 51.867188 46.078125 51.414062 47.402344 51.34375 47.601562 Z M 51.339844 47.601562 " fill-opacity="1" fill-rule="nonzero"/></g></svg>