<svg xmlns="http://www.w3.org/2000/svg" xmlns:xlink="http://www.w3.org/1999/xlink" width="80" zoomAndPan="magnify" viewBox="0 0 60 60" height="80" preserveAspectRatio="xMidYMid meet" version="1.0"><defs><clipPath id="10ffb6300e"><path d="M 5 16.445312 L 11 16.445312 L 11 37 L 5 37 Z M 5 16.445312 " clip-rule="nonzero"/></clipPath><clipPath id="feaeee09e9"><path d="M 0 16.445312 L 6 16.445312 L 6 37 L 0 37 Z M 0 16.445312 " clip-rule="nonzero"/></clipPath><clipPath id="96fa03a720"><path d="M 4 33 L 7 33 L 7 39.695312 L 4 39.695312 Z M 4 33 " clip-rule="nonzero"/></clipPath></defs><g clip-path="url(#10ffb6300e)"><path fill="#67645e" d="M 5.238281 16.535156 L 5.855469 17.699219 C 5.988281 17.910156 6.144531 18.105469 6.320312 18.28125 C 6.835938 18.800781 7.328125 19.34375 7.765625 19.925781 C 8.8125 21.304688 9.515625 22.839844 10.019531 24.496094 C 10.320312 25.511719 10.484375 26.546875 10.5 27.597656 C 10.550781 30.738281 9.480469 33.433594 7.3125 35.675781 C 6.960938 36.03125 6.585938 36.355469 6.179688 36.652344 C 5.964844 36.652344 5.867188 36.480469 5.777344 36.332031 C 5.609375 36.050781 5.511719 35.738281 5.460938 35.421875 C 5.386719 35.042969 5.335938 34.664062 5.363281 34.269531 L 5.363281 34.09375 C 5.351562 34.054688 5.160156 16.625 5.234375 16.535156 Z M 5.238281 16.535156 " fill-opacity="1" fill-rule="nonzero"/></g><g clip-path="url(#feaeee09e9)"><path fill="#9d968d" d="M 5.238281 16.496094 C 5.210938 16.445312 5.1875 16.484375 5.160156 16.507812 C 5.175781 16.761719 5.085938 16.988281 4.945312 17.207031 C 4.796875 17.421875 4.59375 17.585938 4.394531 17.761719 C 3.273438 18.738281 2.390625 19.914062 1.6875 21.230469 C 0.753906 23.003906 0.265625 24.902344 0.125 26.902344 C 0.0625 27.625 0.351562 30.167969 0.578125 30.902344 C 1.195312 32.851562 2.304688 34.484375 3.746094 35.902344 C 4.097656 36.242188 4.476562 36.5625 4.867188 36.863281 C 4.980469 36.863281 4.992188 36.761719 5.015625 36.6875 C 5.066406 36.527344 5.105469 36.359375 5.128906 36.195312 C 5.242188 35.5625 5.304688 34.925781 5.382812 34.292969 L 5.242188 16.496094 Z M 5.238281 16.496094 " fill-opacity="1" fill-rule="nonzero"/></g><g clip-path="url(#96fa03a720)"><path fill="#a6a6a6" d="M 5.855469 37.421875 C 5.882812 37.132812 6.023438 36.890625 6.171875 36.652344 C 6.019531 36.589844 5.90625 36.460938 5.816406 36.320312 C 5.742188 36.195312 5.679688 36.035156 5.628906 35.902344 C 5.453125 35.371094 5.414062 34.8125 5.363281 34.269531 L 5.363281 33.941406 C 5.300781 33.992188 5.289062 34.421875 5.289062 34.484375 C 5.25 35.066406 5.175781 35.636719 5.0625 36.195312 C 5.023438 36.421875 5 36.648438 4.859375 36.851562 C 4.859375 36.878906 4.859375 36.902344 4.875 36.941406 C 5.101562 37.609375 5.164062 38.296875 5.203125 38.992188 L 5.203125 39.246094 C 5.203125 39.546875 5.1875 39.484375 5.441406 39.585938 C 5.542969 39.625 5.65625 39.636719 5.753906 39.710938 C 5.832031 39.710938 5.84375 39.648438 5.84375 39.597656 L 5.804688 39.179688 L 5.804688 38.015625 C 5.792969 37.8125 5.832031 37.609375 5.855469 37.421875 Z M 5.855469 37.421875 " fill-opacity="1" fill-rule="nonzero"/></g><path fill="#9d968d" d="M 15.414062 32.128906 L 15.414062 33.332031 C 15.414062 33.382812 15.417969 33.429688 15.421875 33.476562 C 15.4375 33.617188 15.527344 33.707031 15.652344 33.746094 C 15.773438 33.777344 15.894531 33.800781 16.019531 33.816406 C 16.089844 33.824219 16.113281 33.855469 16.121094 33.933594 C 16.128906 34.203125 16.105469 34.234375 15.84375 34.21875 C 15.238281 34.1875 14.628906 34.179688 14.023438 34.21875 L 13.964844 34.21875 C 13.773438 34.226562 13.757812 34.210938 13.757812 34.019531 C 13.757812 33.988281 13.765625 33.949219 13.765625 33.917969 C 13.765625 33.859375 13.808594 33.828125 13.863281 33.828125 C 13.988281 33.8125 14.105469 33.78125 14.226562 33.757812 C 14.390625 33.71875 14.484375 33.617188 14.5 33.449219 C 14.523438 33.265625 14.523438 33.078125 14.523438 32.894531 L 14.53125 30.769531 C 14.539062 30.628906 14.480469 30.53125 14.359375 30.464844 C 14.214844 30.386719 14.066406 30.324219 13.910156 30.277344 C 13.863281 30.261719 13.816406 30.253906 13.777344 30.226562 C 13.660156 30.171875 13.65625 30.070312 13.765625 30.007812 C 13.808594 29.984375 13.855469 29.964844 13.902344 29.957031 C 14.382812 29.886719 14.847656 29.769531 15.304688 29.601562 C 15.398438 29.570312 15.421875 29.578125 15.433594 29.671875 C 15.441406 29.730469 15.433594 29.800781 15.425781 29.855469 C 15.410156 29.957031 15.410156 30.0625 15.410156 30.15625 C 15.410156 30.195312 15.417969 30.238281 15.457031 30.261719 C 15.496094 30.285156 15.535156 30.261719 15.570312 30.238281 C 15.738281 30.109375 15.902344 29.992188 16.082031 29.890625 C 16.34375 29.746094 16.621094 29.617188 16.921875 29.578125 C 17.285156 29.53125 17.597656 29.628906 17.875 29.863281 C 17.992188 29.96875 18.089844 30.085938 18.175781 30.214844 C 18.253906 30.328125 18.261719 30.332031 18.363281 30.253906 C 18.664062 30.03125 18.980469 29.832031 19.320312 29.691406 C 19.675781 29.539062 20.039062 29.515625 20.398438 29.644531 C 20.769531 29.777344 21.023438 30.039062 21.171875 30.394531 C 21.300781 30.683594 21.355469 30.976562 21.355469 31.285156 L 21.355469 33.410156 C 21.355469 33.550781 21.414062 33.640625 21.550781 33.710938 C 21.703125 33.769531 21.867188 33.796875 22.027344 33.832031 C 22.128906 33.855469 22.128906 33.855469 22.128906 33.957031 C 22.113281 34.21875 22.089844 34.234375 21.835938 34.21875 C 21.203125 34.183594 20.570312 34.183594 19.933594 34.21875 C 19.808594 34.226562 19.808594 34.226562 19.800781 34.101562 L 19.800781 34.0625 C 19.792969 33.847656 19.792969 33.847656 20 33.800781 L 20.203125 33.742188 C 20.367188 33.707031 20.449219 33.601562 20.449219 33.433594 L 20.472656 32.839844 L 20.457031 31.285156 C 20.449219 31.144531 20.421875 31.011719 20.371094 30.878906 C 20.171875 30.398438 19.738281 30.222656 19.320312 30.269531 C 19.003906 30.300781 18.726562 30.429688 18.46875 30.613281 C 18.414062 30.652344 18.375 30.699219 18.382812 30.777344 C 18.453125 31.285156 18.40625 31.792969 18.414062 32.300781 L 18.414062 33.402344 C 18.414062 33.601562 18.492188 33.699219 18.679688 33.746094 L 19.046875 33.824219 C 19.101562 33.832031 19.132812 33.855469 19.132812 33.921875 L 19.132812 33.976562 C 19.125 34.199219 19.109375 34.210938 18.886719 34.207031 C 18.257812 34.175781 17.625 34.183594 17 34.207031 C 16.789062 34.214844 16.769531 34.191406 16.78125 33.976562 C 16.789062 33.847656 16.804688 33.839844 16.921875 33.816406 L 17.183594 33.769531 C 17.414062 33.722656 17.5 33.636719 17.515625 33.390625 L 17.535156 32.855469 L 17.519531 31.261719 C 17.503906 31.0625 17.464844 30.875 17.355469 30.691406 C 17.199219 30.398438 16.953125 30.246094 16.613281 30.230469 C 16.273438 30.207031 15.976562 30.335938 15.691406 30.492188 C 15.492188 30.609375 15.40625 30.746094 15.421875 30.976562 L 15.421875 32.132812 Z M 30.277344 32.175781 L 30.277344 33.292969 C 30.277344 33.375 30.285156 33.453125 30.292969 33.53125 C 30.300781 33.652344 30.363281 33.726562 30.480469 33.753906 C 30.617188 33.792969 30.757812 33.820312 30.898438 33.824219 C 30.980469 33.835938 30.996094 33.867188 31.003906 33.929688 L 31.003906 33.984375 C 30.996094 34.261719 30.964844 34.292969 30.695312 34.277344 C 30.09375 34.238281 29.496094 34.246094 28.894531 34.277344 L 28.664062 34.285156 C 28.617188 34.285156 28.609375 34.261719 28.59375 34.230469 C 28.570312 34.121094 28.570312 34.007812 28.59375 33.898438 C 28.601562 33.851562 28.632812 33.839844 28.679688 33.828125 C 28.796875 33.8125 28.894531 33.785156 29.003906 33.769531 C 29.203125 33.722656 29.273438 33.640625 29.28125 33.433594 L 29.304688 32.769531 L 29.304688 30.816406 C 29.304688 30.675781 29.246094 30.585938 29.121094 30.523438 C 28.980469 30.445312 28.828125 30.390625 28.671875 30.332031 C 28.625 30.316406 28.578125 30.300781 28.539062 30.277344 C 28.433594 30.207031 28.421875 30.105469 28.523438 30.023438 C 28.566406 29.984375 28.621094 29.964844 28.679688 29.960938 C 29.183594 29.878906 29.675781 29.769531 30.148438 29.578125 C 30.203125 29.554688 30.226562 29.570312 30.25 29.617188 C 30.273438 29.667969 30.28125 29.722656 30.273438 29.777344 L 30.25 30.148438 C 30.25 30.199219 30.226562 30.265625 30.265625 30.285156 C 30.3125 30.316406 30.34375 30.246094 30.382812 30.226562 C 30.617188 30.027344 30.871094 29.867188 31.148438 29.734375 C 31.394531 29.617188 31.644531 29.542969 31.929688 29.5625 C 32.460938 29.59375 32.835938 29.863281 33.082031 30.332031 C 33.207031 30.578125 33.261719 30.847656 33.285156 31.125 L 33.308594 31.703125 L 33.316406 33.457031 C 33.324219 33.59375 33.375 33.679688 33.507812 33.726562 C 33.644531 33.773438 33.789062 33.808594 33.933594 33.832031 C 34.058594 33.847656 34.066406 33.871094 34.074219 33.988281 L 34.074219 34.027344 C 34.058594 34.296875 34.042969 34.304688 33.773438 34.289062 C 33.1875 34.257812 32.597656 34.257812 32.007812 34.289062 C 31.929688 34.296875 31.851562 34.289062 31.777344 34.296875 C 31.730469 34.296875 31.699219 34.289062 31.691406 34.242188 C 31.675781 34.140625 31.660156 34.035156 31.683594 33.925781 C 31.691406 33.878906 31.714844 33.851562 31.769531 33.84375 L 32.132812 33.785156 C 32.261719 33.753906 32.332031 33.671875 32.347656 33.554688 L 32.363281 33.332031 L 32.355469 31.675781 C 32.355469 31.484375 32.347656 31.292969 32.304688 31.105469 C 32.210938 30.699219 31.902344 30.40625 31.488281 30.367188 C 31.125 30.328125 30.792969 30.421875 30.492188 30.621094 C 30.34375 30.714844 30.28125 30.851562 30.28125 31.015625 L 30.28125 32.214844 C 30.28125 32.191406 30.28125 32.191406 30.289062 32.191406 Z M 30.277344 32.175781 " fill-opacity="1" fill-rule="nonzero"/><path fill="#a6a6a6" d="M 53.378906 29.929688 C 53.292969 29.351562 53.078125 28.835938 52.710938 28.382812 C 52.382812 27.976562 51.976562 27.675781 51.492188 27.480469 C 50.996094 27.273438 50.46875 27.210938 49.933594 27.195312 C 49.710938 27.1875 46.699219 27.234375 46.476562 27.195312 C 46.421875 27.1875 46.382812 27.203125 46.347656 27.25 C 46.308594 27.308594 46.269531 27.367188 46.246094 27.433594 C 46.152344 27.644531 46.152344 27.628906 46.378906 27.660156 C 46.570312 27.695312 46.75 27.710938 46.933594 27.765625 C 47.097656 27.820312 47.21875 27.914062 47.257812 28.097656 C 47.273438 28.183594 47.289062 30.976562 47.289062 32.277344 L 47.257812 33.207031 C 47.25 33.277344 47.242188 33.351562 47.21875 33.414062 C 47.183594 33.507812 47.128906 33.585938 47.035156 33.628906 C 46.929688 33.679688 46.820312 33.707031 46.703125 33.714844 C 46.492188 33.738281 46.460938 33.746094 46.390625 33.984375 L 46.367188 34.070312 C 46.351562 34.175781 46.359375 34.191406 46.460938 34.191406 L 48.820312 34.214844 L 49.742188 34.199219 L 50.382812 34.117188 C 51.105469 33.984375 51.753906 33.683594 52.304688 33.199219 C 52.625 32.917969 52.875 32.582031 53.0625 32.199219 C 53.285156 31.753906 53.378906 31.269531 53.402344 30.78125 C 53.441406 30.503906 53.425781 30.214844 53.378906 29.929688 Z M 52.234375 31.054688 C 52.203125 31.566406 52.101562 32.054688 51.839844 32.5 C 51.511719 33.078125 51.035156 33.484375 50.382812 33.625 C 50.097656 33.683594 49.8125 33.714844 49.515625 33.675781 C 49.300781 33.652344 49.097656 33.625 48.902344 33.554688 C 48.546875 33.425781 48.417969 33.207031 48.410156 32.859375 L 48.402344 28.074219 C 48.402344 27.789062 48.53125 27.726562 48.734375 27.71875 C 49.042969 27.695312 49.359375 27.703125 49.667969 27.734375 C 49.996094 27.765625 50.3125 27.84375 50.621094 27.964844 C 50.851562 28.0625 51.058594 28.191406 51.246094 28.355469 C 51.671875 28.722656 51.953125 29.179688 52.109375 29.71875 C 52.238281 30.15625 52.261719 30.601562 52.238281 31.042969 Z M 59.9375 31.835938 C 59.9375 31.785156 59.9375 31.746094 59.929688 31.699219 C 59.855469 31.261719 59.628906 30.929688 59.273438 30.675781 C 59.042969 30.511719 58.785156 30.398438 58.515625 30.320312 C 58.46875 30.304688 58.429688 30.289062 58.382812 30.28125 C 58.390625 30.242188 58.414062 30.230469 58.4375 30.222656 C 58.59375 30.144531 58.746094 30.058594 58.878906 29.9375 C 59.125 29.734375 59.28125 29.476562 59.367188 29.167969 C 59.414062 29.003906 59.414062 28.835938 59.398438 28.660156 C 59.371094 28.222656 59.179688 27.878906 58.824219 27.628906 C 58.460938 27.359375 58.035156 27.25 57.59375 27.242188 C 56.742188 27.226562 55.882812 27.242188 55.03125 27.242188 C 54.785156 27.242188 54.542969 27.257812 54.289062 27.21875 C 54.242188 27.210938 54.171875 27.195312 54.136719 27.25 C 54.082031 27.351562 54.011719 27.457031 53.988281 27.574219 C 53.980469 27.628906 53.996094 27.660156 54.058594 27.667969 L 54.601562 27.75 C 54.816406 27.78125 54.96875 27.898438 54.980469 28.089844 C 54.996094 28.222656 55.003906 28.355469 55.003906 28.488281 L 54.988281 29.96875 L 54.980469 32.90625 C 54.980469 33.078125 54.957031 33.246094 54.925781 33.421875 C 54.910156 33.542969 54.839844 33.625 54.722656 33.660156 C 54.5625 33.707031 54.414062 33.753906 54.246094 33.753906 C 54.144531 33.742188 54.074219 33.789062 54.042969 33.886719 C 54.011719 33.960938 53.984375 34.039062 53.972656 34.109375 C 53.957031 34.207031 53.980469 34.238281 54.074219 34.226562 C 54.144531 34.21875 56.75 34.28125 57.238281 34.234375 C 57.53125 34.203125 57.816406 34.164062 58.105469 34.074219 C 58.601562 33.917969 59.058594 33.6875 59.421875 33.296875 C 59.722656 32.980469 59.894531 32.601562 59.910156 32.15625 C 59.933594 32.050781 59.933594 31.949219 59.933594 31.839844 Z M 56.109375 28.582031 L 56.132812 27.949219 C 56.132812 27.832031 56.179688 27.773438 56.300781 27.75 C 56.488281 27.710938 56.675781 27.726562 56.867188 27.734375 C 57.054688 27.75 57.238281 27.773438 57.425781 27.832031 C 57.773438 27.933594 58.042969 28.132812 58.199219 28.464844 C 58.273438 28.617188 58.308594 28.78125 58.308594 28.949219 C 58.320312 29.171875 58.300781 29.386719 58.214844 29.597656 C 58.082031 29.894531 57.871094 30.082031 57.5625 30.140625 C 57.253906 30.195312 56.378906 30.171875 56.242188 30.171875 C 56.125 30.171875 56.117188 30.15625 56.117188 30.035156 L 56.117188 29.289062 C 56.097656 29.054688 56.097656 28.824219 56.109375 28.589844 Z M 58.671875 32.851562 C 58.539062 33.207031 58.292969 33.453125 57.949219 33.589844 C 57.757812 33.660156 57.570312 33.703125 57.371094 33.691406 C 57.125 33.683594 56.882812 33.691406 56.636719 33.644531 C 56.304688 33.574219 56.15625 33.253906 56.132812 33.027344 C 56.09375 32.621094 56.117188 32.207031 56.109375 31.90625 L 56.109375 30.859375 C 56.109375 30.730469 56.125 30.691406 56.257812 30.691406 L 57 30.703125 L 57.503906 30.757812 C 57.859375 30.839844 58.183594 30.972656 58.4375 31.25 C 58.640625 31.472656 58.753906 31.742188 58.777344 32.035156 C 58.800781 32.3125 58.785156 32.582031 58.683594 32.84375 Z M 58.671875 32.851562 " fill-opacity="1" fill-rule="nonzero"/><path fill="#9d968d" d="M 38.632812 30.460938 L 38.835938 30.492188 C 39.058594 30.5 39.316406 30.421875 39.394531 30.113281 C 39.441406 29.960938 39.441406 29.8125 39.394531 29.660156 C 39.347656 29.660156 39.324219 29.699219 39.300781 29.714844 C 39.183594 29.8125 39.050781 29.867188 38.90625 29.882812 C 38.625 29.914062 38.339844 29.898438 38.0625 29.796875 L 37.675781 29.660156 C 37.40625 29.570312 37.125 29.535156 36.839844 29.550781 C 36.4375 29.582031 36.058594 29.71875 35.703125 29.90625 C 35.324219 30.113281 35.058594 30.421875 34.929688 30.84375 C 34.859375 31.089844 34.851562 31.34375 34.882812 31.597656 C 34.960938 32.175781 35.261719 32.582031 35.796875 32.796875 C 35.828125 32.804688 35.851562 32.816406 35.882812 32.828125 C 35.957031 32.867188 35.964844 32.90625 35.898438 32.960938 L 35.703125 33.097656 L 35.230469 33.390625 C 35.109375 33.460938 35.09375 33.519531 35.132812 33.644531 C 35.183594 33.792969 35.265625 33.921875 35.386719 34.023438 C 35.496094 34.117188 35.617188 34.191406 35.75 34.246094 C 35.835938 34.285156 35.835938 34.304688 35.757812 34.375 L 35.308594 34.699219 C 35.15625 34.816406 35.007812 34.933594 34.882812 35.082031 C 34.691406 35.285156 34.628906 35.523438 34.691406 35.792969 C 34.753906 36.078125 34.890625 36.316406 35.101562 36.507812 C 35.3125 36.703125 35.550781 36.835938 35.828125 36.90625 C 36.269531 37.03125 36.726562 37.039062 37.175781 36.953125 C 37.824219 36.832031 38.390625 36.546875 38.832031 36.054688 C 39.140625 35.730469 39.324219 35.351562 39.339844 34.894531 C 39.355469 34.625 39.285156 34.378906 39.125 34.160156 C 38.960938 33.941406 38.75 33.800781 38.488281 33.738281 L 38.058594 33.65625 L 36.757812 33.542969 C 36.617188 33.535156 36.476562 33.507812 36.355469 33.4375 C 36.207031 33.34375 36.167969 33.160156 36.261719 33.042969 C 36.332031 32.953125 36.417969 32.898438 36.53125 32.890625 L 36.78125 32.867188 C 37.296875 32.816406 37.738281 32.613281 38.117188 32.257812 C 38.316406 32.070312 38.449219 31.847656 38.519531 31.582031 C 38.613281 31.242188 38.613281 30.886719 38.535156 30.539062 C 38.511719 30.449219 38.519531 30.441406 38.628906 30.457031 Z M 36.699219 34.414062 C 36.746094 34.421875 36.792969 34.414062 36.839844 34.414062 C 37.171875 34.429688 37.511719 34.453125 37.832031 34.539062 C 37.9375 34.570312 38.042969 34.613281 38.140625 34.660156 C 38.457031 34.832031 38.574219 35.136719 38.535156 35.460938 C 38.488281 35.816406 38.289062 36.070312 37.984375 36.238281 C 37.777344 36.355469 37.550781 36.40625 37.3125 36.429688 C 37.226562 36.4375 37.148438 36.429688 37.058594 36.429688 C 36.785156 36.4375 36.515625 36.40625 36.253906 36.292969 C 36.074219 36.222656 35.925781 36.121094 35.789062 35.976562 C 35.515625 35.699219 35.386719 35.191406 35.796875 34.777344 C 36.050781 34.546875 36.335938 34.382812 36.699219 34.414062 Z M 37.597656 31.9375 C 37.429688 32.359375 37.066406 32.484375 36.707031 32.429688 C 36.375 32.382812 36.128906 32.199219 35.972656 31.898438 C 35.769531 31.492188 35.710938 31.074219 35.832031 30.636719 C 35.917969 30.3125 36.113281 30.066406 36.460938 30.007812 C 36.902344 29.929688 37.328125 30.089844 37.550781 30.53125 C 37.664062 30.746094 37.714844 31.007812 37.714844 31.382812 C 37.707031 31.53125 37.675781 31.738281 37.597656 31.9375 Z M 27.65625 31.398438 C 27.585938 30.96875 27.429688 30.582031 27.136719 30.253906 C 26.703125 29.773438 26.152344 29.558594 25.527344 29.558594 C 24.984375 29.550781 24.472656 29.707031 24.011719 29.992188 C 23.546875 30.273438 23.238281 30.679688 23.089844 31.207031 C 22.957031 31.667969 22.964844 32.136719 23.066406 32.605469 C 23.34375 33.855469 24.304688 34.394531 25.457031 34.316406 C 25.796875 34.292969 26.121094 34.183594 26.425781 34.03125 C 26.882812 33.816406 27.214844 33.476562 27.445312 33.023438 C 27.625 32.652344 27.703125 32.253906 27.695312 31.800781 Z M 26.539062 33.160156 C 26.480469 33.339844 26.378906 33.492188 26.230469 33.613281 C 26.082031 33.734375 25.914062 33.804688 25.726562 33.824219 C 25.378906 33.871094 25.054688 33.785156 24.761719 33.578125 C 24.550781 33.421875 24.382812 33.222656 24.265625 32.984375 C 23.941406 32.316406 23.886719 31.621094 24.050781 30.90625 C 24.105469 30.679688 24.21875 30.488281 24.382812 30.328125 C 24.675781 30.058594 25.015625 29.992188 25.394531 30.074219 C 25.757812 30.152344 26.03125 30.351562 26.261719 30.652344 C 26.488281 30.953125 26.589844 31.304688 26.65625 31.667969 C 26.6875 31.851562 26.6875 32.042969 26.695312 32.160156 C 26.695312 32.539062 26.660156 32.855469 26.542969 33.160156 Z M 44.894531 31.460938 C 44.835938 31 44.664062 30.582031 44.34375 30.230469 C 43.914062 29.765625 43.363281 29.566406 42.75 29.558594 C 42.21875 29.550781 41.730469 29.699219 41.28125 29.960938 C 40.777344 30.265625 40.429688 30.691406 40.296875 31.269531 C 40.128906 31.921875 40.195312 32.554688 40.484375 33.160156 C 40.746094 33.714844 41.1875 34.070312 41.769531 34.230469 C 42.417969 34.402344 43.035156 34.324219 43.632812 34.03125 C 44.152344 33.777344 44.523438 33.382812 44.738281 32.839844 C 44.863281 32.523438 44.910156 32.183594 44.917969 31.785156 C 44.925781 31.714844 44.910156 31.585938 44.894531 31.460938 Z M 43.804688 33.054688 C 43.679688 33.484375 43.410156 33.761719 42.960938 33.824219 C 42.628906 33.875 42.316406 33.792969 42.03125 33.605469 C 41.785156 33.4375 41.613281 33.214844 41.488281 32.953125 C 41.34375 32.675781 41.265625 32.382812 41.234375 32.082031 C 41.1875 31.707031 41.1875 31.34375 41.273438 30.972656 C 41.289062 30.898438 41.3125 30.824219 41.34375 30.757812 C 41.566406 30.199219 42.054688 29.949219 42.628906 30.074219 C 43.015625 30.160156 43.308594 30.375 43.53125 30.703125 C 43.742188 31.019531 43.84375 31.367188 43.894531 31.746094 C 43.917969 31.898438 43.925781 32.054688 43.917969 32.191406 C 43.917969 32.5 43.894531 32.785156 43.800781 33.0625 Z M 43.804688 33.054688 " fill-opacity="1" fill-rule="nonzero"/></svg>