<svg xmlns="http://www.w3.org/2000/svg" xmlns:xlink="http://www.w3.org/1999/xlink" width="80" zoomAndPan="magnify" viewBox="0 0 60 60" height="80" preserveAspectRatio="xMidYMid meet" version="1.0"><defs><clipPath id="f8fb124b79"><path d="M 5 15.496094 L 11 15.496094 L 11 36 L 5 36 Z M 5 15.496094 " clip-rule="nonzero"/></clipPath><clipPath id="c3f1ede30c"><path d="M 0.441406 15.496094 L 6 15.496094 L 6 36 L 0.441406 36 Z M 0.441406 15.496094 " clip-rule="nonzero"/></clipPath><clipPath id="c3032fd621"><path d="M 5 32 L 7 32 L 7 37.996094 L 5 37.996094 Z M 5 32 " clip-rule="nonzero"/></clipPath><clipPath id="af096f54a7"><path d="M 46 25 L 59.691406 25 L 59.691406 33 L 46 33 Z M 46 25 " clip-rule="nonzero"/></clipPath></defs><g clip-path="url(#f8fb124b79)"><path fill="#008037" d="M 5.609375 15.582031 L 6.21875 16.710938 C 6.351562 16.914062 6.503906 17.101562 6.679688 17.273438 C 7.1875 17.777344 7.675781 18.300781 8.109375 18.867188 C 9.140625 20.203125 9.835938 21.683594 10.335938 23.289062 C 10.632812 24.269531 10.792969 25.273438 10.804688 26.289062 C 10.855469 29.328125 9.800781 31.9375 7.660156 34.105469 C 7.3125 34.449219 6.941406 34.765625 6.542969 35.050781 C 6.328125 35.050781 6.230469 34.886719 6.144531 34.742188 C 5.976562 34.46875 5.882812 34.167969 5.832031 33.863281 C 5.757812 33.496094 5.707031 33.128906 5.734375 32.746094 L 5.734375 32.574219 C 5.722656 32.539062 5.535156 15.667969 5.609375 15.582031 Z M 5.609375 15.582031 " fill-opacity="1" fill-rule="nonzero"/></g><g clip-path="url(#c3f1ede30c)"><path fill="#6cac48" d="M 5.609375 15.546875 C 5.585938 15.496094 5.5625 15.535156 5.535156 15.558594 C 5.546875 15.804688 5.460938 16.023438 5.324219 16.230469 C 5.175781 16.441406 4.976562 16.601562 4.777344 16.769531 C 3.671875 17.714844 2.800781 18.855469 2.101562 20.128906 C 1.183594 21.84375 0.699219 23.679688 0.5625 25.617188 C 0.5 26.316406 0.785156 28.777344 1.011719 29.488281 C 1.617188 31.375 2.714844 32.953125 4.136719 34.328125 C 4.484375 34.65625 4.859375 34.964844 5.242188 35.257812 C 5.355469 35.257812 5.367188 35.160156 5.390625 35.085938 C 5.441406 34.929688 5.480469 34.769531 5.503906 34.609375 C 5.617188 33.996094 5.679688 33.382812 5.753906 32.769531 L 5.617188 15.546875 Z M 5.609375 15.546875 " fill-opacity="1" fill-rule="nonzero"/></g><g clip-path="url(#c3032fd621)"><path fill="#a6a6a6" d="M 6.222656 35.796875 C 6.246094 35.515625 6.386719 35.28125 6.53125 35.050781 C 6.382812 34.988281 6.269531 34.867188 6.183594 34.730469 C 6.109375 34.609375 6.046875 34.457031 5.996094 34.328125 C 5.824219 33.8125 5.785156 33.273438 5.734375 32.746094 L 5.734375 32.425781 C 5.675781 32.476562 5.660156 32.894531 5.660156 32.953125 C 5.625 33.515625 5.550781 34.070312 5.4375 34.609375 C 5.398438 34.828125 5.375 35.050781 5.238281 35.246094 C 5.238281 35.269531 5.238281 35.292969 5.25 35.332031 C 5.476562 35.980469 5.539062 36.640625 5.574219 37.316406 L 5.574219 37.558594 C 5.574219 37.855469 5.5625 37.792969 5.8125 37.890625 C 5.910156 37.925781 6.023438 37.941406 6.121094 38.011719 C 6.195312 38.011719 6.210938 37.953125 6.210938 37.902344 L 6.171875 37.5 L 6.171875 36.371094 C 6.160156 36.175781 6.195312 35.980469 6.222656 35.796875 Z M 6.222656 35.796875 " fill-opacity="1" fill-rule="nonzero"/></g><path fill="#545454" d="M 15.664062 30.671875 L 15.664062 31.839844 C 15.660156 31.886719 15.664062 31.933594 15.671875 31.976562 C 15.6875 32.117188 15.773438 32.199219 15.898438 32.238281 C 16.015625 32.269531 16.136719 32.292969 16.257812 32.308594 C 16.328125 32.316406 16.351562 32.347656 16.359375 32.421875 C 16.367188 32.683594 16.34375 32.710938 16.085938 32.695312 C 15.488281 32.667969 14.886719 32.660156 14.285156 32.695312 L 14.230469 32.695312 C 14.042969 32.703125 14.027344 32.6875 14.027344 32.503906 C 14.027344 32.472656 14.035156 32.4375 14.035156 32.40625 C 14.035156 32.347656 14.074219 32.320312 14.128906 32.320312 C 14.253906 32.304688 14.371094 32.273438 14.488281 32.25 C 14.652344 32.214844 14.746094 32.113281 14.761719 31.953125 C 14.78125 31.777344 14.78125 31.589844 14.78125 31.414062 L 14.792969 29.359375 C 14.796875 29.222656 14.738281 29.128906 14.621094 29.066406 C 14.480469 28.988281 14.332031 28.925781 14.175781 28.882812 C 14.128906 28.867188 14.082031 28.859375 14.042969 28.835938 C 13.929688 28.78125 13.925781 28.683594 14.035156 28.621094 C 14.074219 28.597656 14.121094 28.582031 14.167969 28.574219 C 14.640625 28.503906 15.105469 28.390625 15.554688 28.230469 C 15.648438 28.199219 15.671875 28.207031 15.679688 28.296875 C 15.6875 28.355469 15.679688 28.421875 15.671875 28.472656 C 15.65625 28.574219 15.65625 28.671875 15.65625 28.765625 C 15.65625 28.804688 15.664062 28.84375 15.703125 28.867188 C 15.742188 28.890625 15.78125 28.867188 15.816406 28.84375 C 15.980469 28.71875 16.144531 28.605469 16.324219 28.507812 C 16.578125 28.367188 16.851562 28.246094 17.148438 28.207031 C 17.507812 28.160156 17.820312 28.253906 18.09375 28.484375 C 18.207031 28.582031 18.304688 28.695312 18.386719 28.820312 C 18.464844 28.933594 18.472656 28.9375 18.574219 28.859375 C 18.871094 28.644531 19.183594 28.453125 19.519531 28.316406 C 19.867188 28.167969 20.226562 28.144531 20.585938 28.269531 C 20.953125 28.398438 21.203125 28.652344 21.351562 28.996094 C 21.476562 29.273438 21.527344 29.558594 21.527344 29.855469 L 21.527344 31.914062 C 21.527344 32.050781 21.585938 32.140625 21.722656 32.207031 C 21.871094 32.261719 22.035156 32.289062 22.191406 32.320312 C 22.292969 32.34375 22.292969 32.34375 22.292969 32.445312 C 22.277344 32.699219 22.253906 32.714844 22.003906 32.699219 C 21.378906 32.664062 20.753906 32.664062 20.125 32.699219 C 20 32.707031 20 32.707031 19.996094 32.582031 L 19.996094 32.542969 C 19.988281 32.335938 19.988281 32.335938 20.191406 32.292969 L 20.390625 32.238281 C 20.550781 32.199219 20.632812 32.101562 20.632812 31.9375 L 20.65625 31.363281 L 20.640625 29.859375 C 20.636719 29.722656 20.605469 29.59375 20.554688 29.464844 C 20.359375 29 19.933594 28.828125 19.519531 28.875 C 19.207031 28.90625 18.933594 29.027344 18.675781 29.207031 C 18.621094 29.246094 18.585938 29.289062 18.59375 29.367188 C 18.664062 29.859375 18.613281 30.351562 18.625 30.839844 L 18.625 31.910156 C 18.625 32.101562 18.703125 32.191406 18.886719 32.238281 L 19.246094 32.316406 C 19.300781 32.324219 19.332031 32.347656 19.332031 32.40625 L 19.332031 32.464844 C 19.324219 32.679688 19.308594 32.6875 19.089844 32.6875 C 18.46875 32.65625 17.84375 32.664062 17.230469 32.6875 C 17.019531 32.695312 17 32.671875 17.011719 32.460938 C 17.019531 32.339844 17.035156 32.332031 17.152344 32.308594 L 17.40625 32.261719 C 17.636719 32.214844 17.71875 32.132812 17.734375 31.894531 L 17.757812 31.378906 L 17.742188 29.835938 C 17.726562 29.644531 17.6875 29.460938 17.578125 29.285156 C 17.421875 29 17.179688 28.855469 16.847656 28.839844 C 16.511719 28.816406 16.214844 28.9375 15.933594 29.089844 C 15.738281 29.203125 15.652344 29.335938 15.667969 29.558594 L 15.667969 30.679688 Z M 30.339844 30.71875 L 30.339844 31.800781 C 30.34375 31.878906 30.347656 31.957031 30.355469 32.03125 C 30.363281 32.152344 30.425781 32.222656 30.542969 32.246094 C 30.679688 32.285156 30.816406 32.308594 30.957031 32.316406 C 31.035156 32.324219 31.050781 32.355469 31.058594 32.417969 L 31.058594 32.472656 C 31.050781 32.738281 31.019531 32.769531 30.753906 32.753906 C 30.160156 32.714844 29.570312 32.722656 28.976562 32.753906 L 28.75 32.761719 C 28.703125 32.761719 28.691406 32.742188 28.679688 32.707031 C 28.65625 32.601562 28.65625 32.492188 28.679688 32.386719 C 28.6875 32.339844 28.71875 32.332031 28.765625 32.316406 C 28.878906 32.300781 28.976562 32.277344 29.082031 32.261719 C 29.277344 32.214844 29.347656 32.136719 29.355469 31.9375 L 29.378906 31.292969 L 29.378906 29.40625 C 29.378906 29.265625 29.324219 29.183594 29.199219 29.121094 C 29.058594 29.042969 28.910156 28.992188 28.753906 28.9375 C 28.707031 28.921875 28.660156 28.90625 28.621094 28.882812 C 28.523438 28.8125 28.507812 28.714844 28.609375 28.636719 C 28.652344 28.601562 28.703125 28.582031 28.761719 28.574219 C 29.261719 28.5 29.746094 28.390625 30.210938 28.207031 C 30.265625 28.183594 30.289062 28.199219 30.3125 28.246094 C 30.335938 28.292969 30.34375 28.34375 30.335938 28.398438 L 30.3125 28.757812 C 30.3125 28.804688 30.292969 28.871094 30.328125 28.890625 C 30.375 28.921875 30.40625 28.851562 30.445312 28.832031 C 30.675781 28.644531 30.929688 28.484375 31.203125 28.359375 C 31.445312 28.246094 31.691406 28.171875 31.972656 28.1875 C 32.496094 28.21875 32.871094 28.480469 33.109375 28.933594 C 33.234375 29.171875 33.289062 29.433594 33.3125 29.703125 L 33.335938 30.265625 L 33.34375 31.960938 C 33.351562 32.089844 33.398438 32.175781 33.53125 32.222656 C 33.667969 32.265625 33.808594 32.300781 33.953125 32.320312 C 34.078125 32.335938 34.085938 32.359375 34.09375 32.476562 L 34.09375 32.511719 C 34.078125 32.773438 34.0625 32.78125 33.796875 32.765625 C 33.214844 32.734375 32.632812 32.734375 32.050781 32.765625 C 31.972656 32.773438 31.894531 32.765625 31.824219 32.773438 C 31.777344 32.773438 31.746094 32.765625 31.738281 32.71875 C 31.722656 32.621094 31.707031 32.519531 31.730469 32.414062 C 31.738281 32.367188 31.761719 32.34375 31.816406 32.335938 L 32.171875 32.277344 C 32.300781 32.25 32.367188 32.167969 32.382812 32.054688 L 32.398438 31.839844 L 32.390625 30.234375 C 32.390625 30.050781 32.382812 29.867188 32.34375 29.683594 C 32.25 29.289062 31.949219 29.007812 31.535156 28.96875 C 31.175781 28.929688 30.851562 29.023438 30.554688 29.214844 C 30.40625 29.304688 30.34375 29.4375 30.34375 29.597656 L 30.34375 30.757812 C 30.34375 30.734375 30.34375 30.734375 30.351562 30.734375 Z M 30.339844 30.71875 " fill-opacity="1" fill-rule="nonzero"/><g clip-path="url(#af096f54a7)"><path fill="#a6a6a6" d="M 53.15625 28.546875 C 53.074219 27.988281 52.863281 27.488281 52.496094 27.050781 C 52.171875 26.65625 51.769531 26.367188 51.296875 26.175781 C 50.804688 25.976562 50.28125 25.914062 49.753906 25.898438 C 49.535156 25.890625 46.558594 25.9375 46.339844 25.898438 C 46.285156 25.890625 46.246094 25.90625 46.214844 25.953125 C 46.175781 26.007812 46.136719 26.066406 46.113281 26.128906 C 46.019531 26.335938 46.019531 26.320312 46.246094 26.351562 C 46.433594 26.382812 46.613281 26.398438 46.792969 26.453125 C 46.953125 26.503906 47.070312 26.597656 47.109375 26.773438 C 47.125 26.859375 47.140625 29.558594 47.140625 30.820312 L 47.109375 31.71875 C 47.101562 31.789062 47.09375 31.855469 47.070312 31.917969 C 47.039062 32.007812 46.984375 32.085938 46.894531 32.125 C 46.789062 32.171875 46.679688 32.203125 46.566406 32.210938 C 46.355469 32.230469 46.324219 32.242188 46.253906 32.472656 L 46.230469 32.554688 C 46.214844 32.65625 46.222656 32.671875 46.324219 32.671875 L 48.652344 32.691406 L 49.566406 32.675781 L 50.195312 32.601562 C 50.914062 32.46875 51.550781 32.179688 52.097656 31.710938 C 52.410156 31.4375 52.660156 31.113281 52.84375 30.742188 C 53.0625 30.3125 53.15625 29.84375 53.179688 29.367188 C 53.21875 29.101562 53.203125 28.824219 53.15625 28.546875 Z M 52.027344 29.636719 C 51.996094 30.128906 51.894531 30.605469 51.640625 31.035156 C 51.3125 31.59375 50.84375 31.984375 50.199219 32.125 C 49.917969 32.179688 49.636719 32.207031 49.34375 32.167969 C 49.132812 32.148438 48.929688 32.125 48.734375 32.054688 C 48.382812 31.929688 48.257812 31.71875 48.25 31.378906 L 48.242188 26.75 C 48.242188 26.476562 48.371094 26.414062 48.570312 26.40625 C 48.875 26.382812 49.1875 26.390625 49.492188 26.421875 C 49.816406 26.453125 50.128906 26.527344 50.433594 26.644531 C 50.660156 26.738281 50.863281 26.863281 51.050781 27.023438 C 51.46875 27.375 51.75 27.820312 51.90625 28.34375 C 52.03125 28.765625 52.050781 29.195312 52.03125 29.625 Z M 59.632812 30.390625 C 59.632812 30.34375 59.632812 30.304688 59.625 30.257812 C 59.554688 29.835938 59.328125 29.515625 58.980469 29.269531 C 58.753906 29.109375 58.496094 29 58.230469 28.921875 C 58.183594 28.910156 58.144531 28.890625 58.097656 28.886719 C 58.105469 28.847656 58.128906 28.839844 58.152344 28.832031 C 58.308594 28.753906 58.457031 28.671875 58.589844 28.554688 C 58.832031 28.355469 58.988281 28.109375 59.074219 27.808594 C 59.117188 27.648438 59.117188 27.488281 59.105469 27.320312 C 59.078125 26.894531 58.886719 26.5625 58.535156 26.320312 C 58.175781 26.058594 57.753906 25.953125 57.320312 25.945312 C 56.476562 25.929688 55.628906 25.945312 54.789062 25.945312 C 54.546875 25.945312 54.304688 25.960938 54.054688 25.921875 C 54.007812 25.914062 53.941406 25.898438 53.90625 25.953125 C 53.851562 26.050781 53.78125 26.152344 53.757812 26.265625 C 53.75 26.320312 53.765625 26.351562 53.828125 26.359375 L 54.367188 26.4375 C 54.578125 26.46875 54.726562 26.582031 54.742188 26.765625 C 54.757812 26.894531 54.761719 27.023438 54.761719 27.148438 L 54.75 28.585938 L 54.738281 31.425781 C 54.738281 31.59375 54.71875 31.753906 54.683594 31.925781 C 54.667969 32.042969 54.601562 32.121094 54.484375 32.15625 C 54.328125 32.199219 54.179688 32.246094 54.015625 32.246094 C 53.914062 32.238281 53.84375 32.28125 53.8125 32.375 C 53.78125 32.445312 53.757812 32.523438 53.742188 32.59375 C 53.726562 32.683594 53.75 32.714844 53.84375 32.703125 C 53.914062 32.695312 56.484375 32.757812 56.96875 32.710938 C 57.257812 32.679688 57.539062 32.644531 57.824219 32.558594 C 58.316406 32.40625 58.769531 32.183594 59.125 31.804688 C 59.421875 31.5 59.59375 31.128906 59.609375 30.699219 C 59.632812 30.601562 59.632812 30.5 59.632812 30.394531 Z M 55.855469 27.242188 L 55.878906 26.628906 C 55.878906 26.515625 55.925781 26.460938 56.042969 26.4375 C 56.226562 26.398438 56.414062 26.414062 56.601562 26.421875 C 56.789062 26.4375 56.96875 26.460938 57.15625 26.515625 C 57.496094 26.613281 57.761719 26.808594 57.917969 27.128906 C 57.992188 27.277344 58.027344 27.433594 58.027344 27.597656 C 58.035156 27.8125 58.019531 28.019531 57.933594 28.226562 C 57.800781 28.511719 57.59375 28.695312 57.289062 28.75 C 56.984375 28.800781 56.121094 28.78125 55.988281 28.78125 C 55.871094 28.78125 55.863281 28.765625 55.863281 28.648438 L 55.863281 27.925781 C 55.84375 27.703125 55.839844 27.476562 55.851562 27.25 Z M 58.386719 31.375 C 58.253906 31.71875 58.011719 31.957031 57.667969 32.085938 C 57.480469 32.15625 57.296875 32.199219 57.097656 32.1875 C 56.859375 32.179688 56.617188 32.1875 56.375 32.140625 C 56.046875 32.070312 55.898438 31.765625 55.875 31.542969 C 55.835938 31.152344 55.859375 30.75 55.851562 30.460938 L 55.851562 29.445312 C 55.851562 29.324219 55.867188 29.285156 56 29.285156 L 56.734375 29.292969 L 57.234375 29.347656 C 57.582031 29.425781 57.902344 29.558594 58.152344 29.824219 C 58.355469 30.039062 58.464844 30.300781 58.488281 30.585938 C 58.511719 30.855469 58.496094 31.113281 58.394531 31.367188 Z M 58.386719 31.375 " fill-opacity="1" fill-rule="nonzero"/></g><path fill="#545454" d="M 38.59375 29.0625 L 38.792969 29.09375 C 39.011719 29.101562 39.269531 29.023438 39.347656 28.722656 C 39.390625 28.578125 39.390625 28.429688 39.347656 28.285156 C 39.300781 28.285156 39.277344 28.324219 39.253906 28.339844 C 39.136719 28.429688 39.003906 28.484375 38.863281 28.5 C 38.582031 28.53125 38.304688 28.515625 38.03125 28.417969 L 37.648438 28.285156 C 37.378906 28.199219 37.105469 28.164062 36.824219 28.179688 C 36.425781 28.210938 36.050781 28.339844 35.699219 28.523438 C 35.328125 28.722656 35.0625 29.023438 34.9375 29.429688 C 34.867188 29.667969 34.859375 29.914062 34.890625 30.160156 C 34.96875 30.71875 35.261719 31.113281 35.792969 31.320312 C 35.824219 31.328125 35.847656 31.339844 35.878906 31.351562 C 35.949219 31.386719 35.957031 31.425781 35.894531 31.480469 L 35.699219 31.609375 L 35.230469 31.894531 C 35.113281 31.964844 35.097656 32.019531 35.136719 32.140625 C 35.183594 32.285156 35.269531 32.410156 35.386719 32.507812 C 35.496094 32.601562 35.613281 32.671875 35.746094 32.722656 C 35.832031 32.761719 35.832031 32.78125 35.753906 32.847656 L 35.308594 33.164062 C 35.160156 33.273438 35.011719 33.386719 34.886719 33.53125 C 34.703125 33.726562 34.640625 33.957031 34.703125 34.222656 C 34.761719 34.496094 34.894531 34.726562 35.105469 34.914062 C 35.3125 35.101562 35.550781 35.226562 35.824219 35.296875 C 36.257812 35.417969 36.710938 35.425781 37.15625 35.34375 C 37.792969 35.226562 38.351562 34.949219 38.792969 34.476562 C 39.09375 34.160156 39.273438 33.792969 39.289062 33.351562 C 39.308594 33.089844 39.238281 32.851562 39.078125 32.640625 C 38.917969 32.425781 38.710938 32.292969 38.449219 32.230469 L 38.027344 32.152344 L 36.742188 32.042969 C 36.601562 32.035156 36.460938 32.011719 36.34375 31.941406 C 36.195312 31.847656 36.15625 31.671875 36.25 31.558594 C 36.320312 31.472656 36.40625 31.417969 36.515625 31.410156 L 36.765625 31.390625 C 37.273438 31.339844 37.710938 31.140625 38.082031 30.796875 C 38.277344 30.617188 38.410156 30.402344 38.480469 30.144531 C 38.574219 29.816406 38.574219 29.472656 38.496094 29.132812 C 38.472656 29.050781 38.480469 29.042969 38.589844 29.058594 Z M 36.683594 32.882812 C 36.730469 32.894531 36.777344 32.882812 36.820312 32.882812 C 37.148438 32.898438 37.484375 32.921875 37.804688 33.007812 C 37.910156 33.039062 38.007812 33.078125 38.109375 33.125 C 38.417969 33.292969 38.535156 33.585938 38.496094 33.898438 C 38.449219 34.242188 38.253906 34.488281 37.953125 34.652344 C 37.75 34.765625 37.523438 34.8125 37.289062 34.835938 C 37.203125 34.84375 37.125 34.835938 37.039062 34.835938 C 36.765625 34.84375 36.503906 34.8125 36.246094 34.707031 C 36.066406 34.636719 35.917969 34.535156 35.785156 34.398438 C 35.511719 34.128906 35.386719 33.636719 35.792969 33.238281 C 36.042969 33.015625 36.324219 32.855469 36.683594 32.882812 Z M 37.570312 30.488281 C 37.40625 30.894531 37.046875 31.019531 36.691406 30.964844 C 36.363281 30.917969 36.121094 30.742188 35.964844 30.449219 C 35.761719 30.058594 35.710938 29.652344 35.824219 29.230469 C 35.910156 28.914062 36.105469 28.675781 36.449219 28.625 C 36.886719 28.546875 37.304688 28.699219 37.523438 29.128906 C 37.636719 29.339844 37.6875 29.589844 37.6875 29.953125 C 37.679688 30.097656 37.648438 30.296875 37.570312 30.488281 Z M 27.753906 29.96875 C 27.683594 29.550781 27.527344 29.175781 27.238281 28.863281 C 26.8125 28.394531 26.265625 28.1875 25.652344 28.1875 C 25.113281 28.179688 24.605469 28.332031 24.15625 28.609375 C 23.691406 28.878906 23.390625 29.273438 23.242188 29.78125 C 23.109375 30.226562 23.117188 30.679688 23.21875 31.132812 C 23.492188 32.347656 24.445312 32.867188 25.582031 32.792969 C 25.914062 32.769531 26.234375 32.660156 26.539062 32.515625 C 26.988281 32.308594 27.316406 31.976562 27.542969 31.539062 C 27.722656 31.179688 27.800781 30.796875 27.792969 30.359375 L 27.753906 29.964844 Z M 26.648438 31.671875 C 26.523438 32.058594 26.253906 32.273438 25.84375 32.316406 C 25.503906 32.363281 25.183594 32.277344 24.894531 32.078125 C 24.683594 31.925781 24.519531 31.734375 24.402344 31.503906 C 24.085938 30.859375 24.03125 30.183594 24.191406 29.492188 C 24.246094 29.273438 24.355469 29.085938 24.519531 28.929688 C 24.808594 28.667969 25.144531 28.609375 25.519531 28.683594 C 25.878906 28.761719 26.148438 28.953125 26.375 29.246094 C 26.597656 29.539062 26.699219 29.875 26.761719 30.230469 C 26.792969 30.40625 26.792969 30.589844 26.800781 30.703125 C 26.800781 31.074219 26.769531 31.378906 26.652344 31.671875 Z M 44.777344 30.027344 C 44.71875 29.582031 44.550781 29.175781 44.230469 28.839844 C 43.8125 28.386719 43.265625 28.195312 42.660156 28.1875 C 42.136719 28.179688 41.652344 28.324219 41.210938 28.578125 C 40.710938 28.871094 40.367188 29.285156 40.234375 29.84375 C 40.074219 30.476562 40.132812 31.085938 40.421875 31.671875 C 40.679688 32.207031 41.117188 32.554688 41.691406 32.707031 C 42.332031 32.875 42.941406 32.800781 43.53125 32.515625 C 44.046875 32.269531 44.410156 31.886719 44.621094 31.363281 C 44.746094 31.058594 44.792969 30.726562 44.800781 30.34375 C 44.808594 30.273438 44.792969 30.152344 44.777344 30.027344 Z M 43.703125 31.570312 C 43.578125 31.988281 43.3125 32.253906 42.867188 32.316406 C 42.542969 32.363281 42.230469 32.285156 41.949219 32.101562 C 41.707031 31.941406 41.535156 31.726562 41.410156 31.472656 C 41.269531 31.203125 41.191406 30.917969 41.164062 30.628906 C 41.117188 30.269531 41.117188 29.914062 41.203125 29.554688 C 41.21875 29.480469 41.242188 29.414062 41.269531 29.347656 C 41.488281 28.808594 41.972656 28.5625 42.542969 28.6875 C 42.921875 28.769531 43.210938 28.976562 43.429688 29.292969 C 43.640625 29.601562 43.742188 29.9375 43.789062 30.304688 C 43.8125 30.449219 43.820312 30.605469 43.8125 30.734375 C 43.8125 31.035156 43.789062 31.308594 43.699219 31.578125 Z M 43.703125 31.570312 " fill-opacity="1" fill-rule="nonzero"/></svg>