<svg xmlns="http://www.w3.org/2000/svg" xmlns:xlink="http://www.w3.org/1999/xlink" width="80" zoomAndPan="magnify" viewBox="0 0 60 60" height="80" preserveAspectRatio="xMidYMid meet" version="1.0"><defs><clipPath id="28a0ade150"><path d="M 4.089844 0.800781 L 55.839844 0.800781 L 55.839844 58.550781 L 4.089844 58.550781 Z M 4.089844 0.800781 " clip-rule="nonzero"/></clipPath></defs><g clip-path="url(#28a0ade150)"><path fill="#ede8e8" d="M 29.964844 58.542969 C 29.164062 58.542969 28.417969 58.332031 27.722656 57.960938 L 20.621094 53.78125 C 19.550781 53.203125 20.085938 52.992188 20.40625 52.882812 C 21.847656 52.40625 22.117188 52.300781 23.609375 51.457031 C 23.769531 51.351562 23.984375 51.402344 24.144531 51.507812 L 29.589844 54.734375 C 29.804688 54.839844 30.074219 54.839844 30.234375 54.734375 L 51.542969 42.519531 C 51.753906 42.414062 51.863281 42.203125 51.863281 41.9375 L 51.863281 17.558594 C 51.863281 17.292969 51.753906 17.082031 51.542969 16.976562 L 30.234375 4.8125 C 30.019531 4.707031 29.753906 4.707031 29.589844 4.8125 L 8.285156 16.976562 C 8.070312 17.082031 7.964844 17.347656 7.964844 17.558594 L 7.964844 41.9375 C 7.964844 42.148438 8.070312 42.414062 8.285156 42.519531 L 14.105469 45.851562 C 17.257812 47.4375 19.230469 45.585938 19.230469 43.734375 L 19.230469 19.671875 C 19.230469 19.355469 19.5 19.039062 19.871094 19.039062 L 22.597656 19.039062 C 22.917969 19.039062 23.238281 19.304688 23.238281 19.671875 L 23.238281 43.734375 C 23.238281 47.914062 20.941406 50.347656 16.933594 50.347656 C 15.707031 50.347656 14.746094 50.347656 12.023438 49.023438 L 6.414062 45.851562 C 5.027344 45.058594 4.171875 43.578125 4.171875 41.992188 L 4.171875 17.613281 C 4.171875 16.023438 5.027344 14.542969 6.414062 13.75 L 27.722656 1.535156 C 29.058594 0.792969 30.875 0.792969 32.210938 1.535156 L 53.519531 13.75 C 54.90625 14.542969 55.761719 16.023438 55.761719 17.613281 L 55.761719 41.992188 C 55.761719 43.578125 54.90625 45.058594 53.519531 45.851562 L 32.210938 58.066406 C 31.515625 58.382812 30.714844 58.542969 29.964844 58.542969 Z M 36.535156 41.78125 C 27.191406 41.78125 25.265625 37.546875 25.265625 33.953125 C 25.265625 33.632812 25.53125 33.316406 25.90625 33.316406 L 28.683594 33.316406 C 29.003906 33.316406 29.269531 33.527344 29.269531 33.84375 C 29.699219 36.648438 30.925781 38.023438 36.589844 38.023438 C 41.074219 38.023438 42.996094 37.019531 42.996094 34.640625 C 42.996094 33.265625 42.460938 32.257812 35.46875 31.574219 C 29.644531 30.988281 26.015625 29.722656 26.015625 25.121094 C 26.015625 20.835938 29.644531 18.296875 35.734375 18.296875 C 42.570312 18.296875 45.933594 20.625 46.363281 25.703125 C 46.363281 25.863281 46.308594 26.019531 46.199219 26.179688 C 46.09375 26.285156 45.933594 26.390625 45.773438 26.390625 L 42.996094 26.390625 C 42.730469 26.390625 42.460938 26.179688 42.410156 25.914062 C 41.769531 23.003906 40.113281 22.054688 35.734375 22.054688 C 30.820312 22.054688 30.234375 23.746094 30.234375 25.015625 C 30.234375 26.546875 30.925781 27.023438 37.550781 27.871094 C 44.121094 28.71875 47.214844 29.933594 47.214844 34.480469 C 47.164062 39.132812 43.316406 41.78125 36.535156 41.78125 Z M 36.535156 41.78125 " fill-opacity="1" fill-rule="nonzero"/></g></svg>