<svg xmlns="http://www.w3.org/2000/svg" xmlns:xlink="http://www.w3.org/1999/xlink" width="60" zoomAndPan="magnify" viewBox="0 0 45 44.999999" height="60" preserveAspectRatio="xMidYMid meet" version="1.0"><path fill="#e8e8e8" d="M 43.332031 26.996094 C 43.175781 25.96875 42.3125 25.296875 41.3125 25.25 C 40.949219 25.234375 40.578125 25.273438 40.21875 25.320312 C 39.78125 25.375 39.347656 25.472656 38.914062 25.539062 C 38.613281 25.582031 38.304688 25.605469 38.003906 25.632812 L 37.996094 25.59375 C 38.558594 24.535156 39.144531 23.484375 39.675781 22.410156 C 40.085938 21.582031 40.433594 20.726562 40.792969 19.878906 C 41.390625 18.472656 41.867188 17.023438 42.261719 15.550781 C 42.636719 14.140625 42.960938 12.714844 43.0625 11.253906 C 43.105469 10.667969 43.132812 10.082031 43.128906 9.496094 C 43.125 9.03125 43.074219 8.5625 43.027344 8.097656 C 42.976562 7.566406 42.816406 7.0625 42.59375 6.574219 C 42.296875 5.933594 41.84375 5.410156 41.363281 4.910156 C 40.980469 4.507812 40.558594 4.144531 40.136719 3.78125 C 39.542969 3.261719 38.871094 2.847656 38.171875 2.480469 C 37.382812 2.0625 36.546875 1.734375 35.679688 1.511719 C 35.15625 1.378906 34.617188 1.28125 34.085938 1.171875 C 33.894531 1.132812 33.703125 1.054688 33.511719 1.054688 L 29.914062 1.054688 C 29.78125 1.054688 29.652344 1.121094 29.523438 1.136719 C 28.660156 1.234375 27.808594 1.394531 26.980469 1.652344 C 26.671875 1.746094 26.390625 1.6875 26.097656 1.660156 C 25.871094 1.640625 25.648438 1.578125 25.421875 1.566406 C 24.566406 1.523438 23.707031 1.460938 22.847656 1.46875 C 22.023438 1.480469 21.210938 1.613281 20.414062 1.839844 C 19.75 2.03125 19.097656 2.261719 18.5 2.609375 C 18.246094 2.761719 18.042969 2.730469 17.777344 2.65625 C 16.890625 2.398438 15.996094 2.160156 15.09375 1.957031 C 14.53125 1.832031 13.953125 1.769531 13.378906 1.707031 C 12.828125 1.652344 12.273438 1.617188 11.71875 1.605469 C 11.175781 1.59375 10.632812 1.59375 10.09375 1.640625 C 9.238281 1.71875 8.394531 1.890625 7.578125 2.171875 C 6.671875 2.484375 5.835938 2.9375 5.085938 3.53125 C 4.324219 4.136719 3.714844 4.871094 3.222656 5.710938 C 2.703125 6.597656 2.351562 7.546875 2.128906 8.546875 C 2.007812 9.085938 1.933594 9.640625 1.851562 10.191406 C 1.828125 10.359375 2.109375 10.53125 1.757812 10.703125 L 1.757812 13.089844 C 2.109375 13.25 1.832031 13.410156 1.851562 13.566406 C 1.898438 13.949219 1.945312 14.335938 2.007812 14.714844 C 2.109375 15.316406 2.230469 15.917969 2.355469 16.515625 C 2.527344 17.351562 2.707031 18.183594 2.898438 19.015625 C 3.039062 19.621094 3.195312 20.222656 3.363281 20.820312 C 3.617188 21.734375 3.867188 22.648438 4.152344 23.550781 C 4.417969 24.390625 4.722656 25.21875 5.027344 26.042969 C 5.445312 27.1875 5.945312 28.296875 6.546875 29.359375 C 7.066406 30.277344 7.660156 31.136719 8.457031 31.84375 C 8.984375 32.3125 9.566406 32.671875 10.25 32.851562 C 10.78125 32.992188 11.328125 33.007812 11.875 32.894531 C 12.507812 32.765625 13.070312 32.492188 13.570312 32.082031 C 13.628906 32.035156 13.691406 32 13.757812 32.085938 C 14.015625 32.414062 14.363281 32.632812 14.722656 32.820312 C 15.699219 33.328125 16.765625 33.480469 17.84375 33.542969 C 18.105469 33.558594 18.371094 33.523438 18.632812 33.515625 C 19.148438 33.5 19.648438 33.398438 20.136719 33.257812 C 20.394531 33.183594 20.648438 33.089844 20.910156 33 C 20.921875 33.28125 20.941406 33.546875 20.949219 33.816406 L 20.984375 35.28125 C 20.992188 35.503906 21 35.726562 21.019531 35.949219 C 21.074219 36.523438 21.125 37.09375 21.195312 37.664062 C 21.242188 38.058594 21.292969 38.453125 21.382812 38.835938 C 21.570312 39.613281 21.820312 40.367188 22.140625 41.097656 C 22.457031 41.816406 22.910156 42.421875 23.511719 42.917969 C 24.292969 43.566406 25.207031 43.839844 26.195312 43.890625 C 26.605469 43.914062 27.023438 43.894531 27.425781 43.820312 C 28.066406 43.703125 28.699219 43.558594 29.320312 43.371094 C 30.582031 42.992188 31.675781 42.332031 32.492188 41.269531 C 32.953125 40.664062 33.335938 40.007812 33.582031 39.285156 C 33.78125 38.683594 33.972656 38.082031 34.125 37.46875 C 34.242188 36.988281 34.300781 36.488281 34.375 35.996094 C 34.421875 35.671875 34.453125 35.34375 34.480469 35.011719 C 34.53125 34.480469 34.582031 33.945312 34.617188 33.414062 C 34.640625 33.039062 34.640625 32.667969 34.65625 32.292969 C 34.660156 32.179688 34.679688 32.066406 34.6875 31.953125 C 34.699219 31.851562 34.75 31.8125 34.859375 31.816406 C 35.234375 31.820312 35.613281 31.832031 35.988281 31.8125 C 36.40625 31.796875 36.832031 31.777344 37.246094 31.707031 C 37.835938 31.609375 38.421875 31.484375 39 31.332031 C 39.683594 31.152344 40.3125 30.835938 40.914062 30.46875 C 41.617188 30.046875 42.257812 29.546875 42.777344 28.90625 C 43.226562 28.347656 43.441406 27.699219 43.332031 26.996094 Z M 42.132812 27.339844 C 42.109375 27.660156 41.960938 27.9375 41.75 28.171875 C 40.742188 29.285156 39.476562 29.960938 38.027344 30.292969 C 37.476562 30.417969 36.910156 30.484375 36.347656 30.535156 C 35.867188 30.578125 35.382812 30.585938 34.902344 30.570312 C 34.546875 30.554688 34.195312 30.472656 33.835938 30.421875 C 33.800781 30.753906 33.765625 31.097656 33.722656 31.441406 L 33.554688 32.757812 C 33.503906 33.175781 33.464844 33.59375 33.410156 34.011719 C 33.359375 34.414062 33.296875 34.816406 33.242188 35.222656 C 33.191406 35.597656 33.15625 35.976562 33.097656 36.355469 C 33.011719 36.929688 32.929688 37.507812 32.820312 38.082031 C 32.683594 38.765625 32.476562 39.425781 32.136719 40.042969 C 31.726562 40.796875 31.140625 41.371094 30.398438 41.792969 C 29.632812 42.234375 28.792969 42.460938 27.945312 42.652344 C 27.34375 42.785156 26.722656 42.808594 26.117188 42.753906 C 25.058594 42.65625 24.15625 42.207031 23.476562 41.386719 C 22.828125 40.605469 22.386719 39.710938 22.230469 38.695312 C 22.152344 38.214844 22.097656 37.726562 22.054688 37.242188 C 22.007812 36.703125 21.976562 36.160156 21.949219 35.617188 C 21.917969 34.929688 21.898438 34.242188 21.882812 33.554688 C 21.863281 32.707031 21.855469 31.863281 21.84375 31.015625 L 21.84375 30.984375 C 21.414062 31.242188 20.988281 31.523438 20.542969 31.757812 C 20.015625 32.03125 19.445312 32.1875 18.855469 32.234375 C 18.390625 32.269531 17.921875 32.300781 17.460938 32.261719 C 16.703125 32.203125 15.949219 32.082031 15.273438 31.710938 C 14.996094 31.558594 14.710938 31.375 14.519531 31.132812 C 14.066406 30.554688 14.285156 29.824219 14.96875 29.472656 C 15.441406 29.230469 15.957031 29.128906 16.46875 29.007812 C 16.914062 28.90625 17.355469 28.789062 17.792969 28.648438 C 18.222656 28.507812 18.492188 28.160156 18.757812 27.816406 L 19.183594 27.269531 C 19.007812 27.253906 18.839844 27.234375 18.671875 27.21875 C 18.167969 27.171875 17.683594 27.03125 17.222656 26.828125 C 16.828125 26.652344 16.824219 26.632812 16.53125 26.945312 C 16.050781 27.472656 15.578125 28.011719 15.105469 28.542969 C 14.753906 28.9375 14.410156 29.332031 14.0625 29.726562 C 13.71875 30.113281 13.394531 30.527344 13.027344 30.890625 C 12.476562 31.425781 11.8125 31.75 11.023438 31.714844 C 10.515625 31.691406 10.050781 31.515625 9.632812 31.222656 C 8.773438 30.621094 8.191406 29.78125 7.660156 28.902344 C 6.984375 27.769531 6.464844 26.566406 6.019531 25.328125 C 5.710938 24.472656 5.402344 23.617188 5.132812 22.75 C 4.839844 21.808594 4.585938 20.855469 4.332031 19.898438 C 4.140625 19.179688 3.972656 18.453125 3.8125 17.726562 C 3.628906 16.898438 3.453125 16.070312 3.296875 15.238281 C 3.191406 14.675781 3.132812 14.105469 3.046875 13.539062 C 2.933594 12.777344 2.910156 12.007812 2.953125 11.242188 C 2.988281 10.550781 3.089844 9.863281 3.1875 9.175781 C 3.324219 8.226562 3.636719 7.332031 4.085938 6.488281 C 4.359375 5.96875 4.703125 5.5 5.097656 5.0625 C 5.746094 4.34375 6.53125 3.824219 7.40625 3.433594 C 8.015625 3.164062 8.660156 3 9.316406 2.871094 C 10.292969 2.683594 11.277344 2.6875 12.261719 2.710938 C 12.691406 2.71875 13.121094 2.796875 13.550781 2.839844 C 14.476562 2.929688 15.382812 3.125 16.277344 3.367188 C 16.929688 3.542969 17.570312 3.769531 18.21875 3.964844 C 18.285156 3.984375 18.378906 3.984375 18.433594 3.949219 C 19.308594 3.375 20.269531 2.996094 21.289062 2.78125 C 21.675781 2.699219 22.074219 2.664062 22.46875 2.636719 C 22.953125 2.609375 23.4375 2.578125 23.917969 2.609375 C 24.496094 2.640625 25.070312 2.726562 25.644531 2.804688 C 25.921875 2.84375 26.191406 2.9375 26.472656 2.964844 C 26.605469 2.976562 26.746094 2.878906 26.886719 2.847656 C 27.609375 2.679688 28.324219 2.496094 29.054688 2.363281 C 29.59375 2.265625 30.148438 2.222656 30.695312 2.1875 C 31.308594 2.152344 31.929688 2.128906 32.542969 2.15625 C 33.316406 2.195312 34.085938 2.304688 34.847656 2.480469 C 35.785156 2.703125 36.691406 3.019531 37.546875 3.460938 C 38.1875 3.789062 38.796875 4.171875 39.347656 4.644531 C 39.707031 4.953125 40.074219 5.257812 40.398438 5.601562 C 40.800781 6.023438 41.210938 6.449219 41.460938 6.992188 C 41.648438 7.402344 41.785156 7.824219 41.824219 8.273438 C 41.867188 8.832031 41.925781 9.390625 41.921875 9.949219 C 41.914062 10.484375 41.84375 11.019531 41.789062 11.550781 C 41.671875 12.765625 41.410156 13.953125 41.089844 15.125 C 40.824219 16.09375 40.515625 17.050781 40.179688 17.996094 C 39.871094 18.871094 39.511719 19.726562 39.152344 20.578125 C 38.886719 21.210938 38.601562 21.832031 38.289062 22.441406 C 37.699219 23.597656 37.085938 24.742188 36.375 25.828125 C 36.253906 26.019531 36.136719 26.210938 36.019531 26.402344 C 36.328125 26.609375 36.679688 26.683594 37.03125 26.722656 C 37.367188 26.757812 37.710938 26.78125 38.046875 26.757812 C 38.582031 26.714844 39.117188 26.640625 39.652344 26.566406 C 40.179688 26.492188 40.699219 26.339844 41.242188 26.378906 C 41.78125 26.417969 42.171875 26.832031 42.132812 27.339844 Z M 34.394531 26.160156 C 34.164062 25.863281 33.929688 25.570312 33.703125 25.269531 C 33.351562 24.796875 33.097656 24.269531 32.839844 23.738281 C 32.597656 23.234375 32.300781 22.761719 32.046875 22.261719 C 31.601562 21.398438 31.148438 20.53125 30.742188 19.648438 C 30.226562 18.539062 29.820312 17.390625 29.691406 16.160156 C 29.636719 15.640625 29.625 15.121094 29.726562 14.605469 C 29.898438 13.78125 30.328125 13.140625 31.050781 12.699219 C 31.71875 12.289062 32.46875 12.15625 33.234375 12.113281 C 33.707031 12.089844 34.183594 12.109375 34.675781 12.109375 L 34.660156 12.027344 C 34.355469 11.386719 34.066406 10.734375 33.734375 10.109375 C 33.257812 9.226562 32.652344 8.429688 31.980469 7.691406 C 31.480469 7.144531 30.9375 6.636719 30.347656 6.1875 C 29.761719 5.746094 29.148438 5.351562 28.492188 5.03125 C 27.710938 4.644531 26.898438 4.347656 26.042969 4.160156 C 25.222656 3.976562 24.398438 3.867188 23.554688 3.855469 C 22.839844 3.847656 22.125 3.882812 21.425781 4.042969 C 20.371094 4.289062 19.40625 4.722656 18.566406 5.425781 C 18.097656 5.820312 17.6875 6.261719 17.328125 6.75 C 16.910156 7.328125 16.570312 7.953125 16.277344 8.605469 C 15.882812 9.503906 15.609375 10.4375 15.421875 11.398438 C 15.328125 11.875 15.253906 12.359375 15.179688 12.839844 C 15.152344 13.007812 15.152344 13.183594 15.136719 13.375 C 15.265625 13.308594 15.359375 13.257812 15.457031 13.210938 L 15.765625 13.070312 C 16.820312 12.589844 17.910156 12.277344 19.082031 12.316406 C 19.578125 12.328125 20.054688 12.429688 20.496094 12.644531 C 21.347656 13.066406 21.84375 13.777344 22.058594 14.679688 C 22.207031 15.300781 22.308594 15.933594 22.410156 16.566406 C 22.488281 17.058594 22.566406 17.558594 22.574219 18.058594 C 22.589844 18.785156 22.550781 19.515625 22.511719 20.242188 C 22.480469 20.863281 22.347656 21.472656 22.132812 22.050781 C 21.738281 23.105469 21.300781 24.140625 20.890625 25.1875 C 20.753906 25.53125 20.652344 25.890625 20.523438 26.269531 C 20.71875 26.269531 20.878906 26.269531 21.039062 26.269531 C 21.105469 26.269531 21.167969 26.273438 21.226562 26.285156 C 21.699219 26.398438 22.109375 26.613281 22.441406 26.972656 C 22.890625 27.457031 23.125 28.019531 23.136719 28.671875 C 23.144531 29.03125 23.105469 29.394531 23.105469 29.753906 C 23.113281 31.4375 23.125 33.121094 23.140625 34.800781 C 23.144531 35.078125 23.15625 35.351562 23.175781 35.628906 C 23.21875 36.203125 23.257812 36.777344 23.316406 37.351562 C 23.355469 37.757812 23.410156 38.164062 23.472656 38.566406 C 23.566406 39.140625 23.824219 39.648438 24.121094 40.136719 C 24.375 40.554688 24.707031 40.910156 25.140625 41.15625 C 25.882812 41.574219 26.679688 41.609375 27.484375 41.453125 C 28.027344 41.351562 28.5625 41.183594 29.089844 41.011719 C 29.609375 40.84375 30.078125 40.566406 30.472656 40.183594 C 30.84375 39.824219 31.105469 39.390625 31.28125 38.90625 C 31.625 37.972656 31.730469 36.988281 31.875 36.011719 C 31.925781 35.644531 31.972656 35.277344 32.019531 34.914062 C 32.078125 34.496094 32.132812 34.078125 32.183594 33.664062 C 32.226562 33.351562 32.261719 33.039062 32.296875 32.730469 C 32.351562 32.285156 32.410156 31.839844 32.460938 31.394531 C 32.5 31.046875 32.535156 30.703125 32.570312 30.355469 C 32.617188 29.914062 32.664062 29.472656 32.703125 29.03125 C 32.734375 28.695312 32.722656 28.355469 32.78125 28.023438 C 32.890625 27.421875 33.175781 26.90625 33.710938 26.574219 C 33.933594 26.433594 34.1875 26.34375 34.4375 26.226562 Z M 14.144531 23.679688 C 13.878906 23.046875 13.71875 22.386719 13.667969 21.707031 C 13.625 21.0625 13.699219 20.425781 13.765625 19.785156 C 13.832031 19.167969 13.882812 18.546875 13.902344 17.921875 C 13.933594 16.902344 13.863281 15.882812 13.816406 14.859375 C 13.785156 14.253906 13.855469 13.636719 13.910156 13.027344 C 13.960938 12.480469 14.019531 11.929688 14.125 11.390625 C 14.296875 10.480469 14.527344 9.585938 14.855469 8.71875 C 15.167969 7.898438 15.527344 7.097656 16.035156 6.378906 C 16.378906 5.882812 16.773438 5.421875 17.152344 4.9375 L 17.039062 4.898438 C 15.808594 4.507812 14.558594 4.203125 13.273438 4.070312 C 12.667969 4.007812 12.054688 3.96875 11.445312 3.933594 C 11.261719 3.921875 11.070312 3.945312 10.882812 3.964844 C 10.417969 4.007812 9.945312 4.027344 9.488281 4.113281 C 8.710938 4.261719 7.964844 4.511719 7.273438 4.917969 C 6.652344 5.28125 6.132812 5.75 5.695312 6.316406 C 5.210938 6.9375 4.886719 7.640625 4.65625 8.394531 C 4.378906 9.28125 4.246094 10.191406 4.210938 11.113281 C 4.179688 11.917969 4.164062 12.730469 4.304688 13.535156 C 4.410156 14.132812 4.476562 14.738281 4.59375 15.332031 C 4.75 16.144531 4.914062 16.957031 5.109375 17.761719 C 5.382812 18.910156 5.660156 20.0625 5.988281 21.199219 C 6.300781 22.289062 6.652344 23.371094 7.035156 24.4375 C 7.347656 25.308594 7.710938 26.160156 8.089844 27.003906 C 8.339844 27.554688 8.640625 28.082031 8.953125 28.597656 C 9.289062 29.140625 9.671875 29.660156 10.1875 30.058594 C 10.839844 30.558594 11.34375 30.636719 12.007812 30.085938 C 12.292969 29.851562 12.53125 29.558594 12.78125 29.285156 C 13.171875 28.84375 13.550781 28.394531 13.941406 27.953125 C 14.441406 27.390625 14.945312 26.835938 15.445312 26.277344 C 15.550781 26.15625 15.652344 26.035156 15.753906 25.917969 L 15.585938 25.765625 C 14.964844 25.167969 14.480469 24.476562 14.144531 23.679688 Z M 33.019531 6.957031 C 33.425781 7.433594 33.820312 7.925781 34.183594 8.4375 C 34.886719 9.421875 35.449219 10.488281 35.863281 11.628906 C 36.046875 12.132812 36.191406 12.640625 36.125 13.191406 C 36.082031 13.578125 36.085938 13.96875 36.050781 14.355469 C 36.023438 14.675781 35.972656 14.996094 35.929688 15.320312 C 35.867188 15.804688 35.777344 16.285156 35.75 16.773438 C 35.722656 17.238281 35.75 17.703125 35.777344 18.167969 C 35.808594 18.640625 35.871094 19.109375 35.914062 19.578125 C 35.964844 20.113281 36.03125 20.648438 36.046875 21.183594 C 36.058594 21.621094 36.019531 22.0625 35.980469 22.5 C 35.933594 23.03125 35.800781 23.539062 35.601562 24.03125 C 35.460938 24.375 35.292969 24.710938 35.132812 25.054688 L 35.199219 25.125 L 35.292969 25.199219 L 35.390625 25.023438 C 36.214844 23.726562 36.945312 22.382812 37.578125 20.984375 C 37.988281 20.085938 38.367188 19.171875 38.734375 18.253906 C 39.304688 16.824219 39.757812 15.355469 40.105469 13.859375 C 40.265625 13.1875 40.382812 12.503906 40.492188 11.820312 C 40.574219 11.285156 40.644531 10.746094 40.65625 10.207031 C 40.675781 9.636719 40.644531 9.0625 40.589844 8.492188 C 40.550781 8.0625 40.445312 7.628906 40.175781 7.277344 C 39.742188 6.714844 39.273438 6.175781 38.699219 5.75 C 38.214844 5.390625 37.730469 5.023438 37.210938 4.722656 C 36.386719 4.242188 35.496094 3.925781 34.5625 3.707031 C 33.652344 3.496094 32.730469 3.402344 31.800781 3.382812 C 31.253906 3.371094 30.707031 3.429688 30.160156 3.484375 C 29.664062 3.53125 29.175781 3.609375 28.675781 3.671875 C 29.210938 3.972656 29.738281 4.242188 30.234375 4.554688 C 31.28125 5.21875 32.214844 6.015625 33.019531 6.957031 Z M 19.441406 25.492188 C 19.777344 24.414062 20.238281 23.382812 20.683594 22.34375 C 21.046875 21.5 21.242188 20.617188 21.308594 19.703125 C 21.34375 19.253906 21.332031 18.800781 21.3125 18.351562 C 21.285156 17.851562 21.246094 17.347656 21.171875 16.855469 C 21.078125 16.21875 20.972656 15.585938 20.824219 14.964844 C 20.660156 14.292969 20.25 13.824219 19.550781 13.652344 C 19.121094 13.546875 18.699219 13.550781 18.265625 13.621094 C 17.210938 13.785156 16.242188 14.175781 15.34375 14.742188 C 15.164062 14.859375 15.0625 14.949219 15.09375 15.210938 C 15.160156 15.761719 15.175781 16.320312 15.171875 16.875 C 15.167969 17.660156 15.136719 18.449219 15.105469 19.234375 C 15.097656 19.488281 15.058594 19.742188 15.03125 20 C 14.988281 20.390625 14.910156 20.777344 14.910156 21.167969 C 14.914062 21.570312 14.953125 21.980469 15.050781 22.371094 C 15.359375 23.601562 16.015625 24.613281 17.089844 25.324219 C 17.75 25.761719 18.480469 25.980469 19.285156 26.023438 C 19.339844 25.839844 19.386719 25.664062 19.441406 25.492188 Z M 18.179688 14.914062 C 18.039062 14.617188 18.121094 14.375 18.449219 14.257812 C 18.527344 14.230469 18.609375 14.203125 18.691406 14.191406 C 18.804688 14.183594 18.921875 14.191406 19.039062 14.191406 C 19.453125 14.191406 19.851562 14.25 20.195312 14.515625 C 20.417969 14.683594 20.476562 14.910156 20.332031 15.140625 C 20.128906 15.46875 19.824219 15.632812 19.445312 15.664062 C 18.847656 15.714844 18.429688 15.4375 18.179688 14.914062 Z M 34.71875 14.808594 C 34.765625 14.414062 34.804688 14.015625 34.851562 13.621094 C 34.871094 13.460938 34.789062 13.417969 34.65625 13.414062 C 34.238281 13.402344 33.816406 13.390625 33.398438 13.382812 C 32.925781 13.371094 32.464844 13.449219 32.027344 13.628906 C 31.542969 13.828125 31.175781 14.148438 31.023438 14.675781 C 30.910156 15.070312 30.878906 15.464844 30.921875 15.875 C 30.980469 16.503906 31.121094 17.109375 31.339844 17.695312 C 31.632812 18.476562 31.941406 19.253906 32.304688 20.003906 C 32.804688 21.015625 33.367188 21.996094 33.894531 22.996094 C 34.035156 23.261719 34.152344 23.539062 34.300781 23.847656 C 34.605469 23.199219 34.757812 22.546875 34.773438 21.871094 C 34.789062 21.308594 34.742188 20.738281 34.710938 20.171875 C 34.691406 19.824219 34.640625 19.480469 34.605469 19.136719 C 34.558594 18.652344 34.488281 18.171875 34.476562 17.6875 C 34.46875 17.195312 34.5 16.703125 34.542969 16.210938 C 34.582031 15.742188 34.660156 15.277344 34.71875 14.808594 Z M 33.773438 14.425781 C 33.617188 14.855469 33.285156 15.097656 32.851562 15.171875 C 32.449219 15.238281 32.097656 15.089844 31.835938 14.765625 C 31.648438 14.539062 31.71875 14.269531 32 14.113281 C 32.320312 13.9375 32.675781 13.890625 33.089844 13.863281 C 33.203125 13.882812 33.375 13.902344 33.535156 13.949219 C 33.769531 14.015625 33.859375 14.191406 33.773438 14.425781 Z M 21.320312 27.667969 C 21.089844 27.480469 20.785156 27.46875 20.566406 27.675781 C 20.292969 27.929688 20.054688 28.222656 19.816406 28.515625 C 19.539062 28.847656 19.28125 29.195312 18.925781 29.453125 C 18.40625 29.832031 17.804688 29.988281 17.195312 30.136719 C 16.714844 30.253906 16.226562 30.363281 15.742188 30.472656 L 15.738281 30.535156 C 15.882812 30.601562 16.019531 30.6875 16.171875 30.734375 C 16.910156 30.96875 17.660156 31.085938 18.441406 31.019531 C 19.003906 30.96875 19.539062 30.847656 20.046875 30.605469 C 20.746094 30.273438 21.285156 29.75 21.742188 29.136719 C 21.820312 29.035156 21.855469 28.886719 21.863281 28.753906 C 21.894531 28.289062 21.660156 27.945312 21.320312 27.667969 Z M 39.511719 27.851562 C 38.917969 27.914062 38.324219 27.984375 37.726562 28.015625 C 37.441406 28.035156 37.148438 27.980469 36.859375 27.957031 C 36.371094 27.914062 35.894531 27.808594 35.484375 27.546875 C 35.246094 27.398438 35.046875 27.378906 34.796875 27.464844 C 34.433594 27.585938 34.140625 27.773438 34.050781 28.164062 C 33.992188 28.429688 33.972656 28.703125 33.945312 28.972656 C 33.941406 29.019531 34.003906 29.109375 34.046875 29.121094 C 34.328125 29.195312 34.605469 29.28125 34.890625 29.308594 C 35.242188 29.339844 35.597656 29.328125 35.949219 29.3125 C 36.332031 29.292969 36.714844 29.265625 37.089844 29.203125 C 37.972656 29.054688 38.828125 28.8125 39.589844 28.3125 C 39.863281 28.132812 40.132812 27.945312 40.40625 27.761719 L 40.382812 27.726562 C 40.09375 27.769531 39.804688 27.820312 39.511719 27.851562 Z M 39.511719 27.851562 " fill-opacity="1" fill-rule="evenodd"/></svg>