<svg xmlns="http://www.w3.org/2000/svg" xmlns:xlink="http://www.w3.org/1999/xlink" width="60" zoomAndPan="magnify" viewBox="0 0 45 44.999999" height="60" preserveAspectRatio="xMidYMid meet" version="1.0"><defs><clipPath id="b5a2f36202"><path d="M 1.511719 2 L 43 2 L 43 45 L 1.511719 45 Z M 1.511719 2 " clip-rule="nonzero"/></clipPath></defs><g clip-path="url(#b5a2f36202)"><path fill="#000000" d="M 42.785156 28 C 42.535156 27.25 41.886719 26.730469 41.050781 26.605469 C 40.65625 26.546875 40.203125 26.570312 39.667969 26.679688 C 38.730469 26.871094 38.039062 26.945312 37.53125 26.960938 C 39.441406 23.742188 40.996094 20.070312 41.886719 16.613281 C 43.332031 11.023438 42.558594 8.476562 41.65625 7.324219 C 39.269531 4.277344 35.785156 2.640625 31.585938 2.589844 C 29.34375 2.5625 27.375 3.003906 26.347656 3.324219 C 25.390625 3.152344 24.363281 3.058594 23.285156 3.042969 C 21.265625 3.011719 19.476562 3.449219 17.953125 4.355469 C 17.105469 4.070312 15.75 3.667969 14.183594 3.410156 C 10.5 2.804688 7.53125 3.277344 5.359375 4.808594 C 2.730469 6.664062 1.511719 9.890625 1.738281 14.394531 C 1.808594 15.824219 2.609375 20.171875 3.871094 24.296875 C 4.59375 26.667969 5.367188 28.636719 6.167969 30.152344 C 7.300781 32.296875 8.511719 33.5625 9.871094 34.015625 C 10.636719 34.269531 12.023438 34.445312 13.480469 33.234375 C 13.664062 33.457031 13.910156 33.679688 14.238281 33.882812 C 14.652344 34.148438 15.160156 34.363281 15.667969 34.488281 C 17.5 34.945312 19.210938 34.832031 20.671875 34.191406 C 20.683594 34.449219 20.6875 34.699219 20.695312 34.914062 C 20.703125 35.261719 20.714844 35.601562 20.726562 35.917969 C 20.8125 38.074219 20.960938 39.75 21.394531 40.921875 C 21.417969 40.988281 21.449219 41.085938 21.484375 41.1875 C 21.699219 41.851562 22.0625 42.964844 22.984375 43.832031 C 23.941406 44.734375 25.097656 45.007812 26.15625 45.007812 C 26.6875 45.007812 27.191406 44.941406 27.636719 44.84375 C 29.222656 44.507812 31.019531 43.988281 32.320312 42.136719 C 33.550781 40.390625 34.148438 37.753906 34.257812 33.601562 C 34.269531 33.484375 34.285156 33.371094 34.296875 33.265625 C 34.304688 33.191406 34.3125 33.121094 34.320312 33.046875 L 34.613281 33.070312 L 34.6875 33.074219 C 36.300781 33.148438 38.269531 32.808594 39.480469 32.246094 C 40.441406 31.800781 43.507812 30.183594 42.785156 28 " fill-opacity="1" fill-rule="nonzero"/></g><path fill="#336791" d="M 40.027344 28.425781 C 35.230469 29.414062 34.902344 27.792969 34.902344 27.792969 C 39.964844 20.28125 42.082031 10.753906 40.253906 8.421875 C 35.273438 2.0625 26.644531 5.070312 26.5 5.148438 L 26.453125 5.15625 C 25.507812 4.960938 24.445312 4.84375 23.253906 4.824219 C 21.085938 4.789062 19.441406 5.390625 18.191406 6.335938 C 18.191406 6.335938 2.800781 0.00390625 3.519531 14.304688 C 3.671875 17.347656 7.882812 37.324219 12.90625 31.289062 C 14.742188 29.082031 16.515625 27.21875 16.515625 27.21875 C 17.398438 27.800781 18.453125 28.101562 19.558594 27.996094 L 19.644531 27.921875 C 19.617188 28.195312 19.628906 28.464844 19.679688 28.78125 C 18.382812 30.222656 18.765625 30.480469 16.175781 31.011719 C 13.558594 31.550781 15.097656 32.507812 16.101562 32.761719 C 17.320312 33.066406 20.136719 33.496094 22.039062 30.832031 L 21.960938 31.136719 C 22.46875 31.542969 22.824219 33.777344 22.765625 35.800781 C 22.707031 37.828125 22.664062 39.21875 23.066406 40.304688 C 23.464844 41.390625 23.863281 43.832031 27.265625 43.105469 C 30.105469 42.496094 31.578125 40.917969 31.785156 38.289062 C 31.929688 36.417969 32.257812 36.695312 32.277344 35.023438 L 32.542969 34.230469 C 32.847656 31.695312 32.589844 30.878906 34.339844 31.257812 L 34.765625 31.296875 C 36.054688 31.355469 37.742188 31.089844 38.730469 30.628906 C 40.863281 29.640625 42.128906 27.992188 40.027344 28.425781 " fill-opacity="1" fill-rule="nonzero"/><path fill="#ffffff" d="M 19.09375 15.664062 C 18.660156 15.605469 18.269531 15.660156 18.070312 15.808594 C 17.957031 15.894531 17.925781 15.992188 17.914062 16.058594 C 17.890625 16.238281 18.015625 16.433594 18.089844 16.535156 C 18.308594 16.824219 18.625 17.019531 18.9375 17.0625 C 18.984375 17.070312 19.03125 17.074219 19.074219 17.074219 C 19.597656 17.074219 20.074219 16.667969 20.117188 16.367188 C 20.167969 15.988281 19.621094 15.738281 19.09375 15.664062 " fill-opacity="1" fill-rule="nonzero"/><path fill="#ffffff" d="M 33.40625 15.675781 C 33.367188 15.382812 32.84375 15.296875 32.34375 15.367188 C 31.84375 15.4375 31.363281 15.660156 31.402344 15.957031 C 31.433594 16.1875 31.851562 16.578125 32.34375 16.578125 C 32.382812 16.578125 32.425781 16.574219 32.46875 16.570312 C 32.796875 16.523438 33.035156 16.316406 33.152344 16.195312 C 33.324219 16.011719 33.425781 15.808594 33.40625 15.675781 " fill-opacity="1" fill-rule="nonzero"/><path fill="#ffffff" d="M 41.621094 28.3125 C 41.441406 27.761719 40.851562 27.582031 39.871094 27.785156 C 36.96875 28.382812 35.929688 27.96875 35.589844 27.71875 C 37.84375 24.28125 39.703125 20.128906 40.703125 16.253906 C 41.179688 14.421875 41.441406 12.714844 41.460938 11.328125 C 41.484375 9.800781 41.226562 8.679688 40.6875 7.996094 C 38.527344 5.238281 35.355469 3.757812 31.515625 3.71875 C 28.875 3.6875 26.648438 4.363281 26.214844 4.550781 C 25.304688 4.328125 24.3125 4.1875 23.230469 4.167969 C 21.25 4.136719 19.535156 4.613281 18.121094 5.578125 C 17.503906 5.347656 15.910156 4.804688 13.964844 4.488281 C 10.597656 3.949219 7.925781 4.359375 6.015625 5.710938 C 3.738281 7.320312 2.6875 10.203125 2.890625 14.273438 C 2.960938 15.644531 3.738281 19.859375 4.972656 23.890625 C 6.59375 29.203125 8.359375 32.210938 10.214844 32.828125 C 10.433594 32.902344 10.683594 32.953125 10.957031 32.953125 C 11.636719 32.953125 12.464844 32.648438 13.328125 31.609375 C 14.761719 29.886719 16.101562 28.441406 16.597656 27.914062 C 17.324219 28.308594 18.128906 28.527344 18.945312 28.546875 C 18.949219 28.570312 18.949219 28.589844 18.953125 28.609375 C 18.785156 28.804688 18.652344 28.976562 18.539062 29.125 C 17.96875 29.84375 17.851562 29.992188 16.023438 30.367188 C 15.503906 30.476562 14.121094 30.761719 14.101562 31.730469 C 14.082031 32.785156 15.734375 33.230469 15.921875 33.277344 C 16.582031 33.441406 17.214844 33.523438 17.816406 33.523438 C 19.285156 33.523438 20.578125 33.039062 21.609375 32.105469 C 21.578125 35.875 21.734375 39.589844 22.1875 40.71875 C 22.558594 41.644531 23.464844 43.90625 26.324219 43.90625 C 26.746094 43.90625 27.207031 43.859375 27.714844 43.75 C 30.703125 43.109375 32 41.792969 32.5 38.882812 C 32.769531 37.332031 33.230469 33.617188 33.445312 31.628906 C 33.90625 31.769531 34.492188 31.835938 35.128906 31.835938 C 36.457031 31.835938 37.988281 31.554688 38.949219 31.109375 C 40.027344 30.609375 41.976562 29.378906 41.621094 28.3125 Z M 34.511719 14.863281 C 34.5 15.449219 34.417969 15.984375 34.332031 16.539062 C 34.242188 17.140625 34.144531 17.757812 34.121094 18.511719 C 34.097656 19.242188 34.191406 20 34.277344 20.738281 C 34.457031 22.222656 34.640625 23.75 33.929688 25.261719 C 33.820312 25.066406 33.710938 24.851562 33.617188 24.617188 C 33.527344 24.402344 33.335938 24.058594 33.070312 23.582031 C 32.039062 21.734375 29.625 17.40625 30.859375 15.636719 C 31.226562 15.113281 32.164062 14.570312 34.511719 14.863281 Z M 31.664062 4.90625 C 35.105469 4.984375 37.824219 6.269531 39.753906 8.730469 C 41.230469 10.617188 39.601562 19.203125 34.894531 26.609375 C 34.847656 26.546875 34.800781 26.488281 34.75 26.425781 C 34.730469 26.402344 34.710938 26.378906 34.691406 26.355469 C 35.90625 24.34375 35.671875 22.359375 35.457031 20.59375 C 35.371094 19.871094 35.289062 19.1875 35.308594 18.546875 C 35.332031 17.867188 35.421875 17.285156 35.507812 16.71875 C 35.617188 16.027344 35.722656 15.304688 35.695312 14.457031 C 35.71875 14.371094 35.726562 14.265625 35.714844 14.140625 C 35.636719 13.328125 34.707031 10.894531 32.8125 8.691406 C 31.777344 7.488281 30.269531 6.140625 28.207031 5.230469 C 29.09375 5.046875 30.308594 4.875 31.664062 4.90625 Z M 12.414062 30.851562 C 11.464844 31.992188 10.804688 31.773438 10.589844 31.703125 C 9.183594 31.230469 7.546875 28.257812 6.109375 23.546875 C 4.863281 19.464844 4.132812 15.363281 4.078125 14.214844 C 3.894531 10.578125 4.777344 8.042969 6.699219 6.679688 C 9.828125 4.460938 14.972656 5.789062 17.039062 6.460938 C 17.011719 6.492188 16.980469 6.519531 16.949219 6.546875 C 13.558594 9.972656 13.636719 15.820312 13.648438 16.175781 C 13.648438 16.316406 13.65625 16.511719 13.675781 16.777344 C 13.730469 17.761719 13.839844 19.59375 13.550781 21.667969 C 13.28125 23.59375 13.875 25.480469 15.179688 26.839844 C 15.316406 26.980469 15.457031 27.113281 15.601562 27.238281 C 15.023438 27.859375 13.757812 29.234375 12.414062 30.851562 Z M 16.039062 26.015625 C 14.988281 24.921875 14.507812 23.394531 14.726562 21.832031 C 15.035156 19.640625 14.921875 17.734375 14.859375 16.707031 C 14.851562 16.566406 14.84375 16.4375 14.839844 16.339844 C 15.335938 15.902344 17.632812 14.671875 19.269531 15.046875 C 20.015625 15.21875 20.472656 15.726562 20.660156 16.601562 C 21.640625 21.128906 20.789062 23.015625 20.109375 24.53125 C 19.96875 24.84375 19.835938 25.140625 19.71875 25.445312 L 19.632812 25.683594 C 19.410156 26.28125 19.203125 26.832031 19.074219 27.359375 C 17.953125 27.355469 16.867188 26.878906 16.039062 26.015625 Z M 16.210938 32.125 C 15.882812 32.042969 15.589844 31.902344 15.417969 31.785156 C 15.5625 31.714844 15.816406 31.625 16.261719 31.53125 C 18.414062 31.089844 18.746094 30.777344 19.46875 29.859375 C 19.636719 29.648438 19.824219 29.40625 20.085938 29.117188 L 20.085938 29.113281 C 20.476562 28.679688 20.652344 28.753906 20.976562 28.886719 C 21.238281 28.996094 21.492188 29.324219 21.59375 29.683594 C 21.644531 29.851562 21.699219 30.175781 21.519531 30.429688 C 20.003906 32.546875 17.796875 32.519531 16.210938 32.125 Z M 27.464844 42.589844 C 24.835938 43.152344 23.902344 41.8125 23.289062 40.277344 C 22.894531 39.289062 22.699219 34.824219 22.835938 29.894531 C 22.839844 29.828125 22.828125 29.765625 22.8125 29.703125 C 22.796875 29.589844 22.769531 29.472656 22.738281 29.355469 C 22.53125 28.640625 22.03125 28.039062 21.429688 27.789062 C 21.191406 27.691406 20.753906 27.511719 20.226562 27.644531 C 20.339844 27.183594 20.535156 26.660156 20.746094 26.097656 L 20.835938 25.859375 C 20.933594 25.589844 21.058594 25.3125 21.191406 25.019531 C 21.90625 23.433594 22.886719 21.257812 21.824219 16.351562 C 21.425781 14.511719 20.097656 13.613281 18.082031 13.820312 C 16.875 13.945312 15.769531 14.433594 15.21875 14.710938 C 15.097656 14.773438 14.992188 14.832031 14.890625 14.886719 C 15.042969 13.035156 15.625 9.570312 17.796875 7.378906 C 19.167969 6 20.988281 5.320312 23.210938 5.355469 C 27.585938 5.429688 30.394531 7.671875 31.976562 9.542969 C 33.34375 11.152344 34.082031 12.777344 34.375 13.652344 C 32.160156 13.425781 30.648438 13.863281 29.886719 14.957031 C 28.222656 17.332031 30.792969 21.945312 32.03125 24.160156 C 32.257812 24.566406 32.453125 24.917969 32.515625 25.066406 C 32.917969 26.042969 33.441406 26.695312 33.820312 27.171875 C 33.9375 27.316406 34.050781 27.457031 34.136719 27.578125 C 33.464844 27.773438 32.257812 28.222656 32.367188 30.457031 C 32.28125 31.578125 31.648438 36.828125 31.328125 38.683594 C 30.90625 41.132812 30.003906 42.042969 27.464844 42.589844 Z M 38.449219 30.03125 C 37.761719 30.351562 36.609375 30.589844 35.519531 30.640625 C 34.3125 30.699219 33.699219 30.503906 33.554688 30.386719 C 33.488281 28.996094 34.003906 28.847656 34.554688 28.695312 C 34.640625 28.671875 34.726562 28.648438 34.808594 28.621094 C 34.855469 28.660156 34.914062 28.699219 34.972656 28.742188 C 35.941406 29.382812 37.671875 29.449219 40.113281 28.945312 C 40.121094 28.945312 40.132812 28.941406 40.140625 28.941406 C 39.808594 29.25 39.246094 29.660156 38.449219 30.03125 Z M 38.449219 30.03125 " fill-opacity="1" fill-rule="nonzero"/></svg>