<svg xmlns="http://www.w3.org/2000/svg" xmlns:xlink="http://www.w3.org/1999/xlink" width="60" zoomAndPan="magnify" viewBox="0 0 45 44.999999" height="60" preserveAspectRatio="xMidYMid meet" version="1.0"><path fill="#e6e3d3" d="M 37.902344 23.386719 C 37.648438 23.097656 37.382812 22.804688 37.101562 22.515625 C 37.296875 22.308594 37.488281 22.105469 37.667969 21.898438 C 41.132812 18.007812 42.59375 14.105469 41.238281 11.761719 C 39.941406 9.511719 36.078125 8.839844 31.242188 9.78125 C 30.765625 9.875 30.292969 9.980469 29.824219 10.097656 C 29.730469 9.785156 29.636719 9.476562 29.535156 9.167969 C 27.894531 4.226562 25.246094 1.011719 22.535156 1.011719 C 19.9375 1.015625 17.429688 4.023438 15.828125 8.683594 C 15.671875 9.144531 15.523438 9.605469 15.390625 10.074219 C 15.074219 9.996094 14.757812 9.925781 14.441406 9.859375 C 9.339844 8.8125 5.230469 9.5 3.878906 11.847656 C 2.582031 14.097656 3.9375 17.777344 7.175781 21.492188 C 7.496094 21.859375 7.828125 22.21875 8.164062 22.570312 C 7.765625 22.980469 7.386719 23.394531 7.035156 23.800781 C 3.875 27.464844 2.597656 31.082031 3.894531 33.324219 C 5.230469 35.636719 9.28125 36.394531 14.210938 35.421875 C 14.609375 35.34375 15.007812 35.253906 15.402344 35.15625 C 15.546875 35.660156 15.707031 36.164062 15.878906 36.660156 C 17.472656 41.222656 19.96875 44.136719 22.558594 44.136719 C 25.230469 44.136719 27.910156 41.003906 29.53125 36.25 C 29.660156 35.871094 29.78125 35.480469 29.898438 35.082031 C 30.40625 35.207031 30.921875 35.320312 31.4375 35.417969 C 36.191406 36.316406 39.960938 35.609375 41.253906 33.367188 C 42.585938 31.050781 41.210938 27.167969 37.902344 23.386719 Z M 5.476562 12.769531 C 6.308594 11.324219 9.667969 10.757812 14.070312 11.664062 C 14.351562 11.722656 14.640625 11.785156 14.929688 11.859375 C 14.5 13.761719 14.195312 15.6875 14.023438 17.632812 C 12.429688 18.75 10.917969 19.96875 9.484375 21.285156 C 9.171875 20.957031 8.863281 20.625 8.5625 20.28125 L 8.566406 20.28125 C 5.792969 17.097656 4.695312 14.125 5.476562 12.769531 Z M 13.855469 25.121094 C 12.757812 24.285156 11.734375 23.429688 10.804688 22.574219 C 11.730469 21.71875 12.757812 20.867188 13.855469 20.035156 C 13.816406 20.882812 13.796875 21.730469 13.796875 22.578125 C 13.796875 23.425781 13.816406 24.273438 13.855469 25.121094 Z M 13.855469 33.617188 C 11.972656 34.035156 10.074219 34.101562 8.164062 33.816406 C 7.066406 33.730469 6.175781 33.261719 5.488281 32.402344 C 4.703125 31.042969 5.730469 28.136719 8.429688 25.003906 C 8.769531 24.613281 9.121094 24.230469 9.480469 23.859375 C 10.914062 25.179688 12.429688 26.402344 14.023438 27.523438 C 14.203125 29.492188 14.507812 31.445312 14.945312 33.371094 C 14.582031 33.460938 14.21875 33.542969 13.855469 33.617188 Z M 29.167969 16.28125 C 28.445312 15.824219 27.710938 15.382812 26.972656 14.957031 C 26.242188 14.539062 25.503906 14.132812 24.757812 13.746094 C 26.035156 13.207031 27.292969 12.75 28.507812 12.375 C 28.792969 13.667969 29.011719 14.96875 29.167969 16.28125 Z M 17.570312 9.28125 C 18.941406 5.289062 20.972656 2.855469 22.539062 2.855469 C 24.203125 2.855469 26.371094 5.480469 27.785156 9.75 C 27.878906 10.027344 27.964844 10.308594 28.046875 10.589844 C 26.183594 11.167969 24.367188 11.863281 22.597656 12.683594 C 20.835938 11.855469 19.023438 11.148438 17.167969 10.566406 C 17.289062 10.132812 17.425781 9.707031 17.570312 9.28125 Z M 16.707031 12.351562 C 17.972656 12.75 19.214844 13.210938 20.4375 13.738281 C 18.925781 14.515625 17.453125 15.363281 16.023438 16.285156 C 16.195312 14.910156 16.425781 13.589844 16.707031 12.351562 Z M 16.023438 28.871094 C 16.738281 29.328125 17.464844 29.769531 18.199219 30.191406 C 18.949219 30.625 19.710938 31.039062 20.480469 31.433594 C 19.25 31.976562 17.996094 32.453125 16.71875 32.867188 C 16.433594 31.613281 16.199219 30.269531 16.023438 28.871094 Z M 27.789062 35.652344 C 27.210938 37.496094 26.320312 39.171875 25.121094 40.683594 C 24.496094 41.589844 23.644531 42.128906 22.558594 42.296875 C 20.988281 42.296875 18.980469 39.957031 17.617188 36.050781 C 17.457031 35.589844 17.3125 35.125 17.175781 34.65625 C 19.042969 34.050781 20.859375 33.328125 22.628906 32.476562 C 24.414062 33.300781 26.246094 34.003906 28.121094 34.585938 C 28.019531 34.945312 27.910156 35.300781 27.789062 35.652344 Z M 28.570312 32.796875 C 27.34375 32.417969 26.066406 31.953125 24.769531 31.40625 C 25.5 31.019531 26.238281 30.613281 26.980469 30.1875 C 27.742188 29.746094 28.484375 29.296875 29.207031 28.835938 C 29.0625 30.167969 28.851562 31.488281 28.570312 32.796875 Z M 29.53125 22.570312 C 29.535156 23.878906 29.492188 25.1875 29.410156 26.496094 C 28.347656 27.214844 27.226562 27.917969 26.058594 28.589844 C 24.898438 29.261719 23.746094 29.878906 22.617188 30.4375 C 21.425781 29.867188 20.261719 29.253906 19.117188 28.59375 C 17.984375 27.941406 16.871094 27.246094 15.789062 26.507812 C 15.6875 25.199219 15.640625 23.890625 15.636719 22.578125 L 15.640625 22.578125 C 15.636719 21.265625 15.6875 19.957031 15.785156 18.648438 C 16.847656 17.925781 17.960938 17.222656 19.113281 16.558594 C 20.269531 15.890625 21.433594 15.277344 22.59375 14.71875 C 23.765625 15.289062 24.921875 15.902344 26.050781 16.554688 C 27.1875 17.207031 28.300781 17.894531 29.390625 18.621094 C 29.484375 19.9375 29.53125 21.253906 29.53125 22.570312 Z M 31.59375 11.589844 C 35.738281 10.785156 38.863281 11.324219 39.644531 12.679688 C 40.476562 14.125 39.285156 17.3125 36.292969 20.671875 C 36.128906 20.859375 35.957031 21.042969 35.78125 21.230469 C 34.320312 19.914062 32.78125 18.699219 31.15625 17.59375 C 30.992188 15.667969 30.703125 13.765625 30.28125 11.878906 C 30.730469 11.769531 31.167969 11.675781 31.59375 11.589844 Z M 31.316406 19.964844 C 32.410156 20.765625 33.460938 21.621094 34.464844 22.527344 C 33.464844 23.449219 32.417969 24.320312 31.324219 25.132812 C 31.359375 24.277344 31.375 23.425781 31.375 22.570312 C 31.375 21.703125 31.355469 20.835938 31.316406 19.964844 Z M 39.65625 32.449219 C 38.871094 33.808594 35.84375 34.375 31.78125 33.609375 C 31.316406 33.519531 30.835938 33.414062 30.347656 33.292969 C 30.757812 31.386719 31.035156 29.457031 31.183594 27.511719 C 32.804688 26.382812 34.339844 25.152344 35.789062 23.8125 C 36.042969 24.074219 36.285156 24.335938 36.515625 24.597656 C 37.820312 26.019531 38.832031 27.628906 39.539062 29.425781 C 40.015625 30.414062 40.054688 31.421875 39.65625 32.449219 Z M 20.640625 19.207031 C 20.199219 19.460938 19.820312 19.792969 19.511719 20.199219 C 19.199219 20.601562 18.980469 21.050781 18.847656 21.546875 C 18.714844 22.039062 18.679688 22.539062 18.75 23.042969 C 18.816406 23.550781 18.976562 24.023438 19.230469 24.46875 C 19.488281 24.910156 19.816406 25.285156 20.222656 25.597656 C 20.628906 25.90625 21.078125 26.128906 21.570312 26.261719 C 22.0625 26.394531 22.5625 26.425781 23.070312 26.359375 C 23.574219 26.292969 24.050781 26.132812 24.492188 25.875 C 24.933594 25.621094 25.3125 25.292969 25.621094 24.886719 C 25.933594 24.480469 26.152344 24.03125 26.285156 23.539062 C 26.417969 23.046875 26.449219 22.546875 26.382812 22.039062 C 26.316406 21.53125 26.15625 21.058594 25.902344 20.617188 C 25.644531 20.175781 25.316406 19.796875 24.910156 19.488281 C 24.503906 19.175781 24.054688 18.953125 23.5625 18.820312 C 23.070312 18.691406 22.570312 18.65625 22.0625 18.722656 C 21.558594 18.789062 21.082031 18.953125 20.640625 19.207031 Z M 20.640625 19.207031 " fill-opacity="1" fill-rule="nonzero"/></svg>