<svg xmlns="http://www.w3.org/2000/svg" xmlns:xlink="http://www.w3.org/1999/xlink" width="60" zoomAndPan="magnify" viewBox="0 0 45 44.999999" height="60" preserveAspectRatio="xMidYMid meet" version="1.0"><defs><clipPath id="5e43b09ae8"><path d="M 4.5 2.699219 L 34.5 2.699219 L 34.5 32.699219 L 4.5 32.699219 Z M 4.5 2.699219 " clip-rule="nonzero"/></clipPath></defs><g clip-path="url(#5e43b09ae8)"><path fill="#ffffff" d="M 4.5 32.699219 L 34.5 32.699219 L 34.5 2.699219 L 4.5 2.699219 Z M 4.5 32.699219 " fill-opacity="1" fill-rule="nonzero"/></g><path fill="#c6c2c2" d="M 11.132812 17.796875 L 11.125 19.027344 L 15.027344 19.027344 L 15.027344 30.121094 L 17.789062 30.121094 L 17.789062 19.027344 L 21.695312 19.027344 L 21.695312 17.824219 C 21.695312 17.15625 21.679688 16.597656 21.660156 16.585938 C 21.648438 16.566406 19.269531 16.554688 16.390625 16.5625 L 11.148438 16.574219 Z M 11.132812 17.796875 " fill-opacity="1" fill-rule="nonzero"/><path fill="#c6c2c2" d="M 28.707031 16.539062 C 29.46875 16.730469 30.050781 17.070312 30.582031 17.621094 C 30.859375 17.917969 31.269531 18.453125 31.300781 18.582031 C 31.3125 18.621094 30.007812 19.496094 29.214844 19.988281 C 29.1875 20.007812 29.074219 19.882812 28.945312 19.691406 C 28.558594 19.128906 28.152344 18.886719 27.535156 18.847656 C 26.625 18.785156 26.039062 19.261719 26.046875 20.054688 C 26.046875 20.289062 26.078125 20.425781 26.171875 20.617188 C 26.375 21.03125 26.746094 21.277344 27.910156 21.785156 C 30.058594 22.707031 30.976562 23.316406 31.550781 24.183594 C 32.1875 25.152344 32.332031 26.691406 31.898438 27.839844 C 31.421875 29.089844 30.242188 29.933594 28.578125 30.214844 C 28.0625 30.308594 26.84375 30.292969 26.292969 30.191406 C 25.085938 29.980469 23.945312 29.382812 23.242188 28.601562 C 22.964844 28.296875 22.425781 27.503906 22.460938 27.445312 C 22.472656 27.425781 22.597656 27.351562 22.734375 27.269531 C 22.871094 27.191406 23.375 26.902344 23.851562 26.625 L 24.710938 26.125 L 24.894531 26.394531 C 25.144531 26.777344 25.699219 27.308594 26.03125 27.484375 C 26.988281 27.988281 28.300781 27.917969 28.949219 27.335938 C 29.226562 27.082031 29.339844 26.820312 29.339844 26.4375 C 29.339844 26.089844 29.296875 25.9375 29.117188 25.675781 C 28.882812 25.339844 28.40625 25.058594 27.054688 24.476562 C 25.507812 23.808594 24.839844 23.394531 24.230469 22.734375 C 23.878906 22.355469 23.546875 21.746094 23.40625 21.234375 C 23.292969 20.8125 23.265625 19.75 23.355469 19.320312 C 23.675781 17.828125 24.804688 16.785156 26.429688 16.472656 C 26.960938 16.375 28.1875 16.410156 28.707031 16.542969 Z M 28.707031 16.539062 " fill-opacity="1" fill-rule="nonzero"/></svg>